<svg width="20" height="13" viewBox="0 0 20 13" fill="none" xmlns="http://www.w3.org/2000/svg">
<path d="M7.0109 10.7052C7.35971 11.054 7.35971 11.6196 7.0109 11.9684C6.66209 12.3172 6.09656 12.3172 5.74774 11.9684L1.16932 7.38996C0.737707 6.95835 0.737707 6.25857 1.16932 5.82696L5.74775 1.24852C6.09656 0.899711 6.66209 0.899711 7.0109 1.24852C7.35971 1.59733 7.35971 2.16287 7.0109 2.51168L4.22052 5.30207C4.06809 5.4545 4.17605 5.71514 4.39162 5.71514H18.1195C18.6129 5.71514 19.0128 6.11509 19.0128 6.60846C19.0128 7.10183 18.6129 7.50178 18.1195 7.50178H4.39162C4.17605 7.50178 4.06809 7.76242 4.22052 7.91485L7.0109 10.7052Z" fill="#333333"/>
</svg>
