<svg width="21" height="20" viewBox="0 0 21 20" fill="none" xmlns="http://www.w3.org/2000/svg">
<path fill-rule="evenodd" clip-rule="evenodd" d="M10.048 14.7056L2.9765 8.46504C2.65366 8.18013 2.14566 8.40935 2.14566 8.83993V16.2018C2.14566 16.4779 2.36952 16.7018 2.64566 16.7018H17.4503C17.7265 16.7018 17.9503 16.4779 17.9503 16.2018V8.83993C17.9503 8.40935 17.4423 8.18014 17.1195 8.46504L10.048 14.7056ZM10.3797 13.357C10.1907 13.524 9.90686 13.524 9.71779 13.357L2.14563 6.67072V6.39549C2.14563 6.11934 2.36949 5.89549 2.64563 5.89549H17.4503C17.7265 5.89549 17.9503 6.11934 17.9503 6.39549V6.67072L10.3797 13.357Z" fill="#FFFDF6"/>
</svg>
