<svg width="96" height="96" viewBox="0 0 96 96" fill="none" xmlns="http://www.w3.org/2000/svg">
<path d="M94.6875 49.5779C94.6193 50.7283 94.6017 51.8767 94.4647 53.0137C94.2924 55.0384 93.964 57.0293 93.5682 58.9818C93.4231 58.1648 93.2435 57.3613 93.039 56.5677C93.1336 55.9574 93.2223 55.345 93.2956 54.7262C93.2648 54.0933 93.2186 53.459 93.1666 52.8246C93.1937 52.7283 93.2237 52.6335 93.2501 52.5372C93.2897 53.1928 93.3183 53.8569 93.3227 54.5393C93.4539 53.4384 93.5404 52.3248 93.6042 51.2062C94.0168 49.6395 94.3753 48.0614 94.6575 46.4635C94.711 47.5014 94.6809 48.5428 94.6875 49.5779ZM50.6913 93.319C50.2031 93.302 49.6937 93.2843 49.1733 93.2673C48.6558 93.2255 48.128 93.1831 47.6003 93.1406C47.0674 93.1017 46.5338 93.0627 46.0097 93.0245C45.4849 92.9827 44.9813 92.8985 44.488 92.8418C43.8276 92.759 43.1848 92.5962 42.5617 92.4156C42.5427 92.3725 42.5236 92.3279 42.5038 92.2818C43.28 92.4645 44.0607 92.6394 44.8406 92.7944C45.1741 92.8121 45.523 92.7625 45.8257 92.7179C46.1321 92.6599 46.3931 92.6025 46.5521 92.6344C47.2162 92.6252 47.9389 92.6953 48.6954 92.7866C49.4467 92.8914 50.2574 92.907 51.0563 92.9431C51.5892 93.0967 52.1243 93.2411 52.6652 93.3728C52.0121 93.3742 51.3547 93.3594 50.6913 93.319ZM38.0456 90.5954L38.0681 90.5353L38.0977 90.5983L38.0456 90.5954ZM11.8905 68.6881C11.0815 67.9355 10.2527 67.0944 9.4787 66.1451C9.60499 66.2222 9.72637 66.3044 9.85377 66.3787C10.5948 67.2537 11.3793 68.0382 12.1461 68.7475C12.5985 69.166 13.0443 69.556 13.4887 69.9334C13.5153 70.0084 13.5402 70.0828 13.5675 70.1571C13.0128 69.6913 12.4565 69.212 11.8905 68.6881ZM4.54194 52.3673C4.83829 53.0002 5.16469 53.6168 5.51542 54.2179C5.60903 54.5386 5.70813 54.8586 5.82181 55.1758C5.74646 55.4823 5.68863 55.7875 5.63908 56.0912C5.57839 55.9461 5.50626 55.803 5.4496 55.6565C5.03436 54.5797 4.7452 53.4781 4.54194 52.3673ZM75.3454 11.4665C75.3469 11.5274 75.3491 11.5904 75.3469 11.6506C72.5366 9.50687 69.3767 7.75819 65.9477 6.55677L65.9433 6.32668C66.6052 6.5596 67.2591 6.80809 67.8982 7.07995C70.6264 8.24385 73.1046 9.74616 75.3454 11.4665ZM84.0584 82.5317C83.9587 82.6365 83.8591 82.742 83.7586 82.846C83.8613 82.7441 83.9573 82.6351 84.0584 82.5317ZM81.5736 84.8892C80.9183 85.4499 80.23 85.976 79.5249 86.48C79.8086 86.0928 80.1054 85.6984 80.4147 85.2935C81.9328 84.1161 83.3643 82.7823 84.6609 81.2864C84.3186 81.8704 83.9683 82.451 83.5776 83.0237C82.9348 83.6708 82.2677 84.2952 81.5736 84.8892ZM59.7005 92.1445C60.3052 91.9633 60.9414 91.8061 61.6979 91.7381C62.1076 91.7339 62.5188 91.7133 62.9308 91.6942C62.3883 91.8691 61.8401 92.0333 61.2845 92.1848C60.7553 92.1827 60.2275 92.1693 59.7005 92.1445ZM12.8043 67.7224C12.8482 67.8867 12.8925 68.0516 12.9389 68.2173C12.6778 67.9787 12.4172 67.7316 12.1581 67.4803C12.3729 67.5645 12.5876 67.6452 12.8043 67.7224ZM6.46662 56.7227C6.47175 56.7333 6.47835 56.7439 6.48407 56.7546C6.4494 57.0703 6.4288 57.3854 6.42162 57.6983C6.37009 57.6055 6.31856 57.5128 6.26901 57.4193C6.2822 57.1001 6.30999 56.7786 6.35235 56.4558C6.39303 56.5436 6.42389 56.6349 6.46662 56.7227ZM65.0586 6.91286C63.4556 6.401 61.7807 5.99394 60.0545 5.74119C59.5509 5.65411 59.0393 5.55711 58.5152 5.48065C57.9882 5.43392 57.4509 5.38648 56.9019 5.33763C59.7122 5.42755 62.5064 5.93729 65.1524 6.7819L65.0586 6.91286ZM74.9716 11.9083C72.5322 10.1455 69.4426 8.43218 65.9617 7.21235L65.9587 7.04526C66.3839 7.19394 66.8046 7.35039 67.2209 7.51605C70.0554 8.64102 72.6751 10.1504 75.0163 11.9118C75.0009 11.9104 74.9884 11.9104 74.9716 11.9083ZM76.0131 12.6906C75.8878 12.5915 75.7544 12.4924 75.6247 12.3933C75.6305 12.3954 75.6364 12.3975 75.6415 12.3996C75.7647 12.4973 75.8915 12.5922 76.0131 12.6906ZM78.0157 13.7957C78.0296 13.8425 78.0296 13.8786 78.023 13.9111C77.721 13.6308 77.4146 13.3554 77.1031 13.0849C77.5663 13.3419 77.8991 13.5855 78.0157 13.7957ZM79.3028 85.8662C79.3416 85.8011 79.3878 85.7345 79.4281 85.6694C80.1018 85.1753 80.7497 84.6577 81.3713 84.1182C81.2086 84.3108 81.0517 84.5027 80.8941 84.6945C80.3774 85.103 79.8459 85.4917 79.3028 85.8662ZM8.43734 59.7514C8.50668 60.1025 8.59339 60.4487 8.70165 60.7907C8.63634 60.7227 8.56187 60.664 8.49891 60.5953C8.11812 60.1868 7.77252 59.7564 7.44722 59.3139C7.4014 58.9783 7.37597 58.6406 7.36366 58.3015C7.6872 58.8041 8.04856 59.2855 8.43734 59.7514ZM10.7995 62.3022C10.7022 62.1372 10.6172 61.9638 10.5304 61.7925C10.7045 61.9277 10.8802 62.0608 11.0624 62.1875C11.1632 62.3673 11.2682 62.545 11.3785 62.7185C11.4394 62.8133 11.509 62.9019 11.572 62.9953C11.5855 63.0222 11.6012 63.0477 11.6156 63.0753C11.4317 62.9663 11.2491 62.8572 11.0701 62.7404C10.9793 62.5953 10.8855 62.4523 10.7995 62.3022ZM17.0915 68.7058C17.1611 68.7129 17.2303 68.7178 17.2996 68.7242C17.3563 68.7709 17.4122 68.819 17.4686 68.8651C17.519 68.9989 17.5683 69.132 17.6203 69.2651C17.4615 69.1376 17.3062 69.0024 17.1473 68.8736C17.1282 68.8176 17.1101 68.7617 17.0915 68.7058ZM18.6792 69.8307C18.7364 69.9582 18.7923 70.0856 18.8524 70.2123C18.471 69.9185 18.0836 69.6353 17.7071 69.3337C17.6593 69.2028 17.6054 69.0725 17.5602 68.9422C17.9304 69.2431 18.3046 69.5369 18.6792 69.8307ZM23.3219 69.452C24.7097 70.6513 26.1866 71.7451 27.739 72.7221C27.7808 72.8177 27.8278 72.9104 27.8701 73.0053C26.5525 72.1982 25.2641 71.3408 23.9976 70.4523C23.76 70.1337 23.533 69.8024 23.3219 69.452ZM26.7277 71.4463C26.7778 71.4782 26.8265 71.5122 26.876 71.5433C27.047 71.6531 27.2217 71.755 27.3935 71.8626C27.3997 71.8782 27.4057 71.8945 27.412 71.91C27.2079 71.7769 27.0003 71.6488 26.7993 71.5122C26.7764 71.4895 26.7506 71.469 26.7277 71.4463ZM22.9989 68.5245C23.0175 68.5217 23.0361 68.5196 23.0548 68.516C23.2933 68.6916 23.5289 68.8736 23.7691 69.0456C23.9346 69.1638 24.103 69.2757 24.2691 69.3925C24.2939 69.4321 24.3183 69.4732 24.3441 69.5122C24.2132 69.4215 24.0798 69.3352 23.9495 69.2438C23.699 69.069 23.4536 68.8835 23.2054 68.7044C23.1363 68.6442 23.0671 68.5861 22.9989 68.5245ZM25.9762 70.6173C25.9489 70.5833 25.9232 70.5465 25.896 70.5118C26.3275 70.7999 26.7629 71.081 27.2002 71.3585C27.2068 71.3755 27.2131 71.3925 27.2194 71.4095C26.8036 71.1483 26.3885 70.887 25.9762 70.6173ZM16.4496 64.4134C16.5795 64.4374 16.7101 64.4636 16.8404 64.4835C16.9489 64.5344 17.0585 64.5833 17.1674 64.6328C17.1826 64.7454 17.1955 64.8587 17.2117 64.9719C17.1302 64.9613 17.0486 64.9479 16.9675 64.9358C16.7923 64.7815 16.6277 64.6257 16.4596 64.4707C16.4559 64.4516 16.453 64.4325 16.4496 64.4134ZM90.552 61.0618C90.5483 61.139 90.5388 61.2211 90.5329 61.3004C90.4985 61.0066 90.4604 60.7135 90.4171 60.4204C90.423 60.3978 90.4281 60.3751 90.434 60.3517C90.5549 60.0983 90.67 59.8434 90.7851 59.5878C90.6993 60.0806 90.6194 60.5719 90.552 61.0618ZM48.1104 5.40985C51.4192 4.63816 54.8481 4.36489 58.2316 4.65374C60.7714 4.86967 63.2371 5.4049 65.5739 6.19499L65.439 6.3826C65.0821 6.26437 64.7251 6.14756 64.363 6.04208C60.8073 4.99216 56.9694 4.56949 53.281 4.87887C49.5794 5.16772 45.9782 6.0803 42.6343 7.50686C41.7408 7.88845 40.8671 8.3097 40.0117 8.76421C39.9164 8.772 39.8199 8.78545 39.7248 8.79465C40.2521 8.44562 40.7916 8.10226 41.3442 7.76951C41.3604 7.7596 41.3765 7.75111 41.3933 7.7412C43.5491 6.73447 45.8037 5.95003 48.1104 5.40985ZM91.3172 67.3507C90.7719 68.9876 90.2287 70.6102 89.6182 72.1685C89.5646 72.315 89.5053 72.4757 89.4481 72.6293C89.9341 71.8491 90.3827 71.0499 90.8012 70.2399C90.4633 71.658 89.9986 73.0449 89.4342 74.3837C89.3052 74.5699 89.1798 74.7582 89.0508 74.9451C88.8038 75.3203 88.5326 75.6807 88.2555 76.0368C88.3845 75.7932 88.5055 75.544 88.6272 75.2955C88.4886 75.5681 88.3501 75.8407 88.2013 76.1069C87.804 76.6145 87.3899 77.1115 86.9845 77.6163C86.19 78.6499 85.5779 79.709 84.9659 80.7639C84.5356 81.2715 84.0936 81.7671 83.6223 82.2365C83.184 82.6896 82.7244 83.1207 82.2553 83.542C82.4268 83.3451 82.591 83.1462 82.75 82.948C82.8571 82.8113 82.9494 82.6726 83.052 82.5352C85.3873 80.1565 87.2572 77.4357 88.592 74.4771C88.6118 74.4339 88.6279 74.3894 88.6469 74.3455C88.9592 73.7557 89.2341 73.1794 89.4481 72.6293C89.3565 72.7907 89.2487 72.9416 89.1483 73.0973C89.9011 71.0761 90.3878 68.9599 90.5952 66.8382C90.9038 65.8328 91.197 64.8141 91.4763 63.7847C91.4939 64.9698 91.4543 66.1621 91.3172 67.3507ZM94.9133 47.7917C94.8495 47.3032 94.7601 46.8218 94.6787 46.3432C94.719 46.1124 94.7689 45.8837 94.8055 45.6522C94.8693 45.9248 94.9316 46.1931 94.9917 46.4543C95.669 42.6143 95.5935 38.7509 94.664 34.8451C94.5688 34.4932 94.4735 34.1428 94.3782 33.7881C93.9311 32.2235 93.3909 30.7438 92.7744 29.3293C92.6806 29.0114 92.5978 28.6942 92.4878 28.3764C92.092 27.2089 91.5371 26.1463 91.0013 25.0609C90.4516 24.1073 89.8337 23.1954 89.171 22.3303C88.0518 20.0811 86.7192 17.9147 85.1696 15.8595C81.0869 10.4987 75.4803 5.78083 68.3373 2.93338C65.8158 1.95496 63.641 1.37584 61.6722 0.98292C62.3576 0.984336 63.0173 1.00204 63.6264 1.04098C66.4125 1.21655 68.264 1.66046 68.2808 1.5663C69.2425 1.68383 69.5782 1.67248 69.3671 1.54929C69.2616 1.4877 69.0197 1.39781 68.6503 1.28311C68.5557 1.2548 68.4546 1.22435 68.3446 1.19108C68.2031 1.15709 68.0514 1.11957 67.8894 1.07992C67.5647 1.00629 67.1997 0.923459 66.798 0.832839C65.1862 0.517085 62.9205 0.198497 60.1872 0.26363C59.3999 0.279913 58.5724 0.331604 57.7177 0.414436C55.7805 0.243816 53.9788 0.191411 52.0539 0.328049C51.4463 0.374067 50.8181 0.407351 50.1738 0.479564C49.5346 0.576555 48.8713 0.67638 48.1735 0.781868C47.4706 0.876027 46.7596 1.05868 45.9994 1.23567C45.2386 1.41125 44.4382 1.60735 43.6136 1.88983C40.2975 2.94329 36.2474 4.63463 31.6702 8.15748C30.5006 9.07784 29.3834 10.0732 28.3269 11.1366C27.4845 11.4226 26.649 11.7228 25.845 12.0782C24.8987 12.4534 23.9971 12.9051 23.0963 13.3596C19.5052 15.189 16.2468 17.5947 13.3907 20.525C11.1145 22.8521 9.12972 25.6025 7.65429 28.7148C5.66576 31.1318 4.10295 33.8893 3.22916 36.9506L3.06592 37.5523C2.65273 38.4323 2.27422 39.3279 1.9627 40.2504C1.69816 40.9647 1.49542 41.7031 1.29297 42.4401C1.10085 43.1793 0.922808 43.9814 0.804503 44.7545C0.538575 46.3127 0.450322 47.8858 0.489023 49.4738C0.521935 51.059 0.728637 52.666 1.11551 54.283C1.49344 55.8958 2.06664 57.527 2.91705 59.1206C3.76453 60.7064 4.83484 62.2746 6.24841 63.6438C6.65925 64.0459 7.09883 64.4247 7.55174 64.79C8.62579 66.516 9.91908 67.9008 11.168 69.0838C12.2077 70.0552 13.1947 70.8899 14.1934 71.7054C15.3315 74.2364 16.987 76.7349 19.2146 78.7299C20.3642 79.5405 21.5281 80.2039 22.6605 80.8127C22.7756 81.0244 22.8939 81.2397 23.0155 81.4549C21.7028 80.7094 20.4157 79.8159 19.2146 78.7299C18.7355 78.3788 18.2391 78.0269 17.7901 77.6347C19.0757 79.229 20.6476 80.5862 22.2525 81.6312C22.6877 81.9151 23.1258 82.1777 23.5653 82.4248C23.6532 82.5784 23.7385 82.7271 23.8293 82.8871C24.2047 83.4577 23.7829 83.8761 24.5583 84.5459C25.5867 85.4386 26.574 86.3866 27.6792 87.1845C28.2203 87.5986 28.7672 88.0071 29.3218 88.4036C29.8979 88.7668 30.4837 89.1179 31.0793 89.4507C36.2514 92.1445 41.4974 93.8634 47.0051 94.7704C46.975 94.7342 46.9648 94.7003 46.9765 94.6712C47.6384 94.781 48.2974 94.9056 48.9666 94.999C49.6417 95.0663 50.3204 95.1342 51.0043 95.2029C52.3523 95.3884 53.4063 94.965 54.7506 95.021C57.1885 95.0684 59.625 94.8652 61.9962 94.4546C64.3088 94.4263 66.6331 94.1728 68.9354 93.668C72.0125 93.004 75.0412 91.8641 77.7599 90.3696C80.4954 88.8723 82.9897 87.0131 85.1806 84.8475C87.373 82.6853 89.2561 80.2004 90.7198 77.4499C92.1829 74.7129 93.2347 71.6686 93.7046 68.5642C93.9017 67.3111 94.0051 66.0537 94.0315 64.8013C94.2074 64.2456 94.3848 63.6905 94.5336 63.1326C95.0907 60.5564 95.4183 57.9659 95.4681 55.3938C95.5261 52.8246 95.3838 50.2752 94.9133 47.7917Z" fill="#A0C878"/>
<path d="M58.2627 56.1585C57.8694 56.1585 57.5502 55.8393 57.5502 55.4466C57.5502 55.0526 57.8694 54.7341 58.2627 54.7341C58.6561 54.7341 58.9746 55.0526 58.9746 55.4466C58.9746 55.8393 58.6561 56.1585 58.2627 56.1585ZM54.1664 56.1585C53.7731 56.1585 53.4546 55.8393 53.4546 55.4466C53.4546 55.0526 53.7731 54.7341 54.1664 54.7341C54.5605 54.7341 54.879 55.0526 54.879 55.4466C54.879 55.8393 54.5605 56.1585 54.1664 56.1585ZM50.0722 56.1585C49.6775 56.1585 49.3596 55.8393 49.3596 55.4466C49.3596 55.0526 49.6775 54.7341 50.0722 54.7341C50.4656 54.7341 50.7827 55.0526 50.7827 55.4466C50.7827 55.8393 50.4656 56.1585 50.0722 56.1585ZM45.9766 56.1585C45.5832 56.1585 45.264 55.8393 45.264 55.4466C45.264 55.0526 45.5832 54.7341 45.9766 54.7341C46.3693 54.7341 46.6884 55.0526 46.6884 55.4466C46.6884 55.8393 46.3693 56.1585 45.9766 56.1585ZM41.8803 56.1585C41.4869 56.1585 41.1691 55.8393 41.1691 55.4466C41.1691 55.0526 41.4869 54.7341 41.8803 54.7341C42.275 54.7341 42.5928 55.0526 42.5928 55.4466C42.5928 55.8393 42.275 56.1585 41.8803 56.1585ZM37.786 56.1585C37.392 56.1585 37.0735 55.8393 37.0735 55.4466C37.0735 55.0526 37.392 54.7341 37.786 54.7341C38.1794 54.7341 38.4972 55.0526 38.4972 55.4466C38.4972 55.8393 38.1794 56.1585 37.786 56.1585ZM71.9243 51.4517V50.2281H77.0625C77.2701 49.5911 77.3681 49.1909 77.3681 49.1909C77.5015 48.5083 77.0408 47.9509 76.3466 47.9509C76.3466 47.9509 67.0406 47.9509 63.9386 47.9509C63.2274 47.9509 62.9232 48.332 62.7728 48.6832C62.3359 49.6959 61.396 51.4129 60.8679 52.2534C60.1384 53.4165 57.7094 53.1892 45.2368 53.3471C38.0072 53.439 35.1836 53.5152 33.2971 53.4655C32.2912 53.4396 31.7685 53.3341 31.5684 53.0245C31.4024 52.7652 31.401 52.4664 31.3534 52.0329C31.2316 50.9542 31.1982 50.5922 31.1982 50.5922C31.1342 49.8994 30.5129 49.3338 29.8187 49.3338H21.9358C21.2409 49.3338 20.5774 49.7435 20.61 50.4309C20.6311 50.8657 20.672 51.2571 21.2246 52.2534C22.0787 53.7915 22.9627 53.8214 23.2778 57.3985C23.382 58.5656 23.4507 59.3517 23.4983 59.8811C23.5943 60.9762 24.2388 61.1511 24.6328 61.2123C25.0657 61.2804 25.521 61.3232 25.8844 61.3232C25.8844 61.3232 57.2358 61.3232 62.4475 61.3232C67.6592 61.3232 69.0612 60.8693 72.3748 57.932C74.5377 56.0149 75.8777 53.3389 76.6195 51.4517H71.9243Z" fill="white"/>
<path d="M62.3732 47.4673L62.3283 46.8378H67.0732V45.3018H60.6772V49.3735H61.4885C61.9404 48.5113 62.314 47.7293 62.3732 47.4673Z" fill="white"/>
<path d="M59.9234 40.4219H53.5275V44.4937H59.9234V40.4219Z" fill="white"/>
<path d="M61.0536 50.1825H60.6772V50.8535C60.7997 50.6391 60.927 50.4125 61.0536 50.1825Z" fill="white"/>
<path d="M74.2225 46.8379V45.3019H67.8273V46.8379H74.2225Z" fill="white"/>
<path d="M67.0732 40.4219H60.6772V44.4937H67.0732V40.4219Z" fill="white"/>
<path d="M52.7732 45.3018H46.3773V49.3735H52.7732V45.3018Z" fill="white"/>
<path d="M49.0662 52.1899C50.4518 52.1736 51.6782 52.1599 52.7732 52.145V50.1822H46.3773V52.2212L49.0662 52.1899Z" fill="white"/>
<path d="M59.9234 51.702V50.1823H53.5275V52.1328C57.1834 52.0736 59.1292 51.9811 59.9234 51.702Z" fill="white"/>
<path d="M59.9234 45.3018H53.5275V49.3735H59.9234V45.3018Z" fill="white"/>
<path d="M33.2092 38.5237H31.4731V37.5743H33.2092V38.5237ZM30.5707 38.5237H28.8339V37.5743H30.5707V38.5237ZM34.1845 39.3036V37.5743H36.2656V37.4681C36.2656 36.7733 35.6967 36.2044 35.0018 36.2044H27.8655C27.1706 36.2044 26.6017 36.7733 26.6017 37.4681V37.5743H27.9308V38.5237H26.6017V42.2852H36.2656V39.3036H34.1845Z" fill="white"/>
<path d="M36.8318 45.6811H34.6629V44.4935H36.8318V45.6811ZM33.5345 45.6811H31.3642V44.4935H33.5345V45.6811ZM30.2345 45.6811H28.0649V44.4935H30.2345V45.6811ZM38.0507 46.6556V44.4935H40.5559C40.5552 43.7986 39.9869 43.231 39.2927 43.231H25.3052C24.6096 43.231 24.0414 43.7986 24.0414 44.4935H26.7861V45.6811H24.0414V46.9578C24.0414 47.6526 24.6096 48.2216 25.3052 48.2216H30.7946C31.763 48.2175 32.0495 48.3856 32.1183 48.8531C32.1645 49.1682 32.1666 49.3615 32.2346 50.053C32.2346 50.053 32.2823 50.5525 32.3435 51.1031C32.4048 51.653 32.7097 52.1001 33.1058 52.1266C33.8557 52.1784 34.4478 52.2314 35.1413 52.2314H39.2927C39.9869 52.2314 40.5559 51.6632 40.5559 50.9676V46.6556H38.0507Z" fill="white"/>
</svg>
