<svg width="20" height="20" viewBox="0 0 20 20" fill="none" xmlns="http://www.w3.org/2000/svg">
<g clip-path="url(#clip0_8_725)">
<path d="M6.50001 14.9168C3.83334 14.9168 1.58334 12.7502 1.58334 10.0002C1.58334 7.25016 3.75001 5.0835 6.50001 5.0835C7.75001 5.0835 8.91668 5.5835 9.83334 6.3335L8.41668 7.75016C7.83334 7.3335 7.16668 7.0835 6.50001 7.0835C4.83334 7.0835 3.58334 8.41683 3.58334 10.0002C3.58334 11.5835 4.91668 12.9168 6.50001 12.9168C7.83334 12.9168 8.83334 12.0835 9.16668 11.0002H6.50001V9.16683H11.0833C11.5 11.0835 10.5833 14.9168 6.50001 14.9168ZM16.5833 10.8335V12.5835H14.8333V10.8335H13.0833V9.16683H14.8333V7.41683H16.5833V9.16683H18.3333V10.8335H16.5833Z" fill="white"/>
</g>
<defs>
<clipPath id="clip0_8_725">
<rect width="20" height="20" fill="white"/>
</clipPath>
</defs>
</svg>
