<svg width="20" height="20" viewBox="0 0 20 20" fill="none" xmlns="http://www.w3.org/2000/svg">
<path fill-rule="evenodd" clip-rule="evenodd" d="M6.90224 2.59205C5.68133 2.64713 4.62311 2.94563 3.76862 3.79651C2.91115 4.65187 2.61636 5.71428 2.56113 6.92249C2.5268 7.6766 2.32606 13.3737 2.90816 14.8678C3.3007 15.8758 4.07383 16.6508 5.09101 17.0446C5.56564 17.2292 6.10746 17.3542 6.90224 17.3906C13.5479 17.6914 16.0113 17.5277 17.0501 14.8678C17.2345 14.3943 17.3613 13.853 17.3964 13.0602C17.7001 6.39753 17.3472 4.95336 16.1889 3.79651C15.2703 2.88012 14.1897 2.25631 6.90224 2.59205ZM6.96342 16.0507C6.2358 16.0179 5.84102 15.8967 5.57759 15.7947C4.91489 15.5371 4.41713 15.0414 4.16115 14.3826C3.71786 13.2473 3.86489 7.85539 3.90444 6.98292C3.94325 6.12831 4.11638 5.34725 4.71937 4.74427C5.46565 3.99983 6.42983 3.63499 12.9948 3.93128C13.8516 3.96999 14.6344 4.14277 15.2389 4.74427C15.9852 5.4887 16.3554 6.4603 16.0539 13.0001C16.021 13.726 15.8994 14.1198 15.7971 14.3826C15.1218 16.1134 13.568 16.3536 6.96342 16.0507ZM13.0672 6.01722C13.0672 6.51004 13.468 6.91077 13.9628 6.91077C14.4576 6.91077 14.8591 6.51004 14.8591 6.01722C14.8591 5.52441 14.4576 5.12403 13.9628 5.12403C13.468 5.12403 13.0672 5.52441 13.0672 6.01722ZM6.147 9.99097C6.147 12.1022 7.8627 13.8139 9.97915 13.8139C12.0956 13.8139 13.8113 12.1022 13.8113 9.99097C13.8113 7.87977 12.0956 6.1692 9.97915 6.1692C7.8627 6.1692 6.147 7.87977 6.147 9.99097ZM7.4918 9.99097C7.4918 8.62123 8.60525 7.50989 9.97915 7.50989C11.353 7.50989 12.4665 8.62123 12.4665 9.99097C12.4665 11.3615 11.353 12.4732 9.97915 12.4732C8.60525 12.4732 7.4918 11.3615 7.4918 9.99097Z" fill="white"/>
</svg>
