<svg width="45" height="25" viewBox="0 0 45 25" fill="none" xmlns="http://www.w3.org/2000/svg">
<path d="M33.3173 9.82684C33.2216 10.6294 33.0142 11.415 32.7011 12.1602L32.3563 12.9807C31.8128 14.2741 30.8429 15.3429 29.6086 16.0099L29.1094 16.2794C28.0988 16.8255 26.9211 16.9794 25.8039 16.7121C25.4784 16.6342 25.1653 16.5223 24.8688 16.3798C25.3244 16.2714 25.766 16.0958 26.1767 15.8513C27.1636 15.2634 27.9003 14.3314 28.2435 13.2351L28.4133 12.6931C28.8323 11.3543 28.7807 9.91239 28.2678 8.60665L27.9428 7.7776C27.6577 7.05204 27.2744 6.36955 26.8069 5.74607C29.0167 4.67928 34.1133 2.92358 34.142 2.9137L33.3173 9.82684Z" fill="#FFBF78"/>
<path d="M10.7251 9.82684C10.8209 10.6294 11.0282 11.415 11.3413 12.1602L11.6861 12.9807C12.2296 14.2741 13.1996 15.3429 14.4339 16.0099L14.933 16.2794C15.9437 16.8255 17.1213 16.9794 18.2386 16.7121C18.564 16.6342 18.8771 16.5223 19.1736 16.3798C18.7181 16.2714 18.2764 16.0958 17.8658 15.8513C16.8789 15.2634 16.1421 14.3314 15.799 13.2351L15.6291 12.6931C15.2102 11.3543 15.2618 9.91239 15.7746 8.60665L16.0997 7.7776C16.3847 7.05204 16.768 6.36955 17.2355 5.74607C15.0255 4.67913 9.92774 2.92309 9.90045 2.9137L10.7251 9.82684Z" fill="#FFBF78"/>
<path d="M26.5104 13.3004L26.2832 13.8205C25.8234 14.8733 24.9907 15.7198 23.9459 16.1974C22.72 16.7578 21.3107 16.7608 20.0828 16.2048C19.0185 15.7228 18.1739 14.8589 17.7161 13.7839L17.3745 12.9815C16.9089 11.8882 16.7176 10.6871 17.0225 9.5386C17.2057 8.84809 17.4745 8.02277 17.8616 7.18773C18.8321 5.09417 22.0154 0.191284 22.0154 0.191284L25.6235 6.14572C26.0424 6.837 26.3627 7.58342 26.575 8.36333L26.8087 9.22194C27.1772 10.5757 27.072 12.0147 26.5104 13.3004Z" fill="#FFBF78"/>
<path d="M26.9661 17.7262H25.6249C25.3162 17.7262 25.009 17.6832 24.7121 17.5984L24.5534 17.5531C24.5059 17.5395 24.4596 17.5226 24.4146 17.5024L24.3538 17.4751C24.1218 17.3709 23.8562 17.372 23.6251 17.478C23.5459 17.5143 23.4618 17.5386 23.3755 17.5503L22.7457 17.6353C22.2984 17.6957 21.845 17.6962 21.3975 17.6369L20.742 17.55C20.6554 17.5385 20.5712 17.5137 20.4923 17.4765C20.2701 17.3715 20.0132 17.3686 19.7886 17.4683L19.7261 17.4961C19.6713 17.5205 19.6144 17.5398 19.5561 17.5539L19.2978 17.6163C18.9958 17.6894 18.6862 17.7262 18.3755 17.7262H17.2003C17.2003 18.6263 17.5038 19.5 18.0617 20.2062L19.3773 21.8713L22.0717 24.4574L24.3528 22.3132C24.6657 22.0191 24.9553 21.701 25.219 21.362L26.1129 20.2127C26.6659 19.5018 26.9661 18.6269 26.9661 17.7262Z" fill="#FFBF78"/>
<path d="M33.3243 11.649C33.8948 11.4882 34.4851 11.4126 35.0792 11.4615C35.7362 11.5156 36.5786 11.6203 37.4412 11.8237C39.3089 12.264 43.7309 13.8645 43.7499 13.8714L38.9038 16.5708C38.2663 16.9258 37.5911 17.2096 36.8913 17.4172L35.9308 17.7019C35.2205 17.9127 34.48 17.9884 33.7454 17.9326C33.2038 17.4736 32.4029 17.038 31.4276 16.7104C30.9465 16.5488 30.4623 16.4284 29.9929 16.345C29.9757 16.3173 29.9583 16.2897 29.9422 16.2614C31.1566 15.527 32.0777 14.5586 32.5806 13.4721L32.9459 12.6828C33.1032 12.343 33.2285 11.9973 33.3243 11.649Z" fill="#FFBF78"/>
<path d="M10.7181 12.2082C10.1477 12.0473 9.5573 11.9717 8.96324 12.0206C8.30624 12.0748 7.46383 12.1795 6.60125 12.3828C4.73364 12.8231 0.311881 14.4235 0.292502 14.4306L5.13864 17.1299C5.77617 17.485 6.45132 17.7687 7.15114 17.9764L8.11167 18.2611C8.82192 18.4718 9.56243 18.5475 10.297 18.4918C10.8386 18.0327 11.6395 17.5971 12.6149 17.2695C13.0959 17.108 13.5802 16.9875 14.0495 16.9042C14.0668 16.8764 14.0841 16.8488 14.1003 16.8205C12.8858 16.0862 11.9648 15.1177 11.4618 14.0313L11.0965 13.2419C10.9393 12.9021 10.8139 12.5565 10.7181 12.2082Z" fill="#FFBF78"/>
<path d="M27.9658 17.358C30.4421 17.358 32.4874 19.1981 32.8115 21.5855L26.2763 21.0386C27.0921 20.2524 27.6005 19.1488 27.6005 17.9263C27.6005 17.7396 27.5864 17.556 27.5634 17.3755C27.6961 17.3647 27.8303 17.358 27.9658 17.358Z" fill="#FFBF78"/>
<path d="M16.0767 17.358C13.6004 17.358 11.555 19.1981 11.231 21.5855L17.7661 21.0386C16.9504 20.2524 16.4419 19.1488 16.4419 17.9263C16.4419 17.7396 16.4561 17.556 16.479 17.3755C16.3463 17.3647 16.2122 17.358 16.0767 17.358Z" fill="#FFBF78"/>
</svg>
