<svg width="96" height="96" viewBox="0 0 96 96" fill="none" xmlns="http://www.w3.org/2000/svg">
<path d="M91.729 71.9439C91.7305 71.9416 91.7313 71.9394 91.7328 71.9371C91.7343 71.9409 91.7373 71.9424 91.7388 71.9454L91.729 71.9439ZM90.8082 73.0809C90.7277 72.7853 89.9815 72.0336 90.2639 72.0992L90.7854 72.624L90.6624 72.3955L90.5994 72.3895C90.1515 72.002 90.7353 72.3148 90.6351 72.1324L91.1194 72.5478C91.0177 72.7273 90.9145 72.9044 90.8082 73.0809ZM42.2521 85.8607C41.8611 85.737 41.4816 85.6254 41.1134 85.5282C40.7536 85.4045 40.4059 85.2967 40.0704 85.2085C39.6225 85.3412 38.4815 85.2884 40.4074 86.0507C39.5656 86.0039 38.6614 85.6737 37.8302 85.173C37.008 84.6468 36.2125 84.0602 35.5293 83.5407C36.0508 83.5844 36.5958 83.5648 37.1166 83.5761C36.0144 83.126 34.9652 82.4286 33.8827 81.7704C33.7666 81.6957 33.655 81.6113 33.5411 81.5321C33.5669 81.5366 33.5996 81.5472 33.6231 81.5502C33.2489 81.2871 32.8723 81.0232 33.0879 80.9727C36.9124 82.9903 41.1271 84.7237 45.4814 85.8456C47.7497 86.4035 50.0582 86.7895 52.3341 86.966C52.0122 87.0195 51.6607 87.0693 51.3115 87.1123C49.8791 87.297 48.4906 87.3761 49.2285 87.3422C49.2156 87.4478 49.1951 87.5292 49.17 87.597C48.5863 87.5262 48.0002 87.4168 47.4187 87.3083C46.4895 87.165 45.5968 86.8763 44.7276 86.6357C43.8516 86.4193 43.0325 86.1064 42.2521 85.8607ZM33.7377 83.9908C33.3582 83.7639 32.8845 83.5611 32.3994 83.304C31.9174 83.0431 31.4012 82.7686 30.8971 82.4768C29.8723 81.9204 28.9887 81.1514 28.5248 80.3605C27.8052 80.0996 27.9494 80.4562 27.9425 80.6598C27.9463 80.849 27.7444 80.9485 26.4433 79.9578C24.5644 77.9078 22.4677 75.7801 20.5881 73.7006C20.1311 73.1698 19.6833 72.6481 19.2475 72.1414C18.8224 71.6265 18.4512 71.0942 18.0838 70.5943C17.6359 70.0002 17.27 69.4053 16.9572 68.83C18.2971 70.2158 19.8419 71.7433 21.4915 73.2211C22.5482 74.1847 23.6512 75.1166 24.7466 75.992L24.5326 76.1782C24.6328 76.1088 24.7451 76.0824 24.8651 76.0869C25.6288 76.6939 26.3863 77.2722 27.1212 77.8083C27.3011 77.993 27.4825 78.1792 27.6647 78.3602C27.9646 78.6716 28.2493 78.9867 28.5233 79.2499C28.8049 79.5039 29.0623 79.7233 29.2801 79.8779C29.7166 80.1878 29.9914 80.2353 29.9907 79.7844C31.2721 80.6552 31.4695 81.4967 31.0656 81.7184L33.0401 82.7302L35.0632 83.6138C35.3509 84.1243 34.1742 84.3007 33.7377 83.9908ZM16.227 68.6083C16.101 68.2977 15.9795 67.9886 15.858 67.6794C16.1343 67.9727 16.4274 68.2796 16.7272 68.5925C16.8403 68.9258 16.7963 69.0321 16.227 68.6083ZM12.3387 64.3296C12.3341 64.3137 12.3296 64.2979 12.325 64.2821C12.6173 64.4246 12.987 64.7246 13.4288 65.1476C13.8038 65.9333 14.191 66.6714 14.3382 67.1441C13.1031 66.6344 12.6279 65.5201 12.3387 64.3296ZM5.49062 49.5781C5.67736 49.6023 5.86486 49.6256 6.05692 49.6468C6.19053 51.2361 6.57693 52.827 7.10224 54.3402C7.05442 54.2761 7.00506 54.212 6.95724 54.1464C6.49645 53.4935 5.98858 52.7591 5.6986 50.7053C5.58473 50.21 5.52174 49.8526 5.49062 49.5781ZM12.6773 15.3947C12.527 15.5485 12.3736 15.7038 12.2377 15.8493C11.8453 16.2791 11.5522 16.7141 11.2782 17.1115C11.0132 17.5164 10.7787 17.8948 10.5927 18.296C10.4652 18.593 10.3627 18.8999 10.2587 19.2075C10.2071 19.1954 10.1593 19.1864 10.1145 19.1834C10.1517 19.2256 10.1866 19.2641 10.223 19.3048C10.1949 19.3892 10.1585 19.4676 10.1319 19.5528C10.1167 19.5687 10.1031 19.5852 10.0886 19.6003L9.99756 19.5197C10.0257 19.5619 10.0401 19.5898 10.0644 19.6267C9.9725 19.724 9.8837 19.825 9.79336 19.9238C9.78729 19.9095 9.77208 19.8944 9.74551 19.8778C9.51322 19.4314 9.37582 19.065 9.77361 19.4329C9.80853 19.2316 9.93532 19.1698 10.1145 19.1834C9.95885 19.0054 9.80019 18.8215 9.65596 18.6669C10.4265 17.2208 11.452 15.9511 12.6773 15.3947ZM47.0771 3.14268L46.5404 2.95645C47.5592 2.73705 49.8396 3.08237 50.478 3.43447C49.3834 3.68932 48.4625 3.97054 47.6966 4.27212C46.5381 4.29323 45.3736 4.35281 44.2289 4.44856C40.2123 4.80669 36.4213 5.5207 33.3741 5.66923C32.3797 5.59836 32.7995 5.29678 33.3825 5.02007C33.964 4.74789 34.6988 4.48626 34.2783 4.4282C32.8344 5.12487 31.6949 5.80646 30.7923 6.46316C29.5861 6.45336 28.3586 6.52951 27.1235 6.70443C26.7728 6.48352 26.4607 6.33198 26.1753 6.23095C27.1576 5.81778 28.1513 5.43098 29.164 5.10677C35.322 3.14268 41.7291 2.74081 47.0771 3.14268ZM52.1769 4.07157C52.1155 4.1432 52.0555 4.21408 52.0016 4.28495C51.6319 4.21182 51.2728 4.13339 50.9282 4.04593C50.308 3.79863 50.3429 3.65011 50.62 3.54531C50.6344 3.56566 50.6427 3.58527 50.6443 3.60487L50.7217 3.51063C51.3169 3.34023 52.5649 3.30178 52.1056 3.09594C51.6668 3.17511 51.2538 3.2573 50.8598 3.344L51.1916 2.94213C53.2306 2.97003 52.6643 3.52796 52.1769 4.07157ZM76.4857 11.134C76.4971 11.1498 76.4994 11.1589 76.5092 11.1725C76.4903 11.2049 76.472 11.2403 76.4485 11.2659C76.3415 11.1875 76.2481 11.1219 76.1509 11.0526C76.2625 11.0797 76.3688 11.1076 76.4857 11.134ZM83.1083 14.597C83.2359 14.7425 83.2048 14.833 83.0871 14.8722C83.0317 14.7335 83.0347 14.6377 83.1083 14.597ZM83.8751 14.8058L84.058 15.2748C83.7931 15.0275 83.5016 14.7862 83.1759 14.5698C83.3042 14.5623 83.5251 14.6287 83.8751 14.8058ZM89.8995 28.5017C89.8987 28.4987 89.8987 28.4964 89.898 28.4934C89.8987 28.4964 89.8995 28.4987 89.8995 28.5017ZM91.1186 33.1303C91.1247 33.2849 91.1331 33.4379 91.1384 33.5932C91.0693 33.5058 90.979 33.4296 90.8264 33.3912C90.8674 33.5013 90.8954 33.6113 90.7224 33.7388C90.6829 33.5442 90.6359 33.3497 90.6025 33.1552C90.8112 33.1024 90.9858 33.0911 91.1186 33.1303ZM91.0981 32.6334C91.1027 32.7345 91.1065 32.8355 91.1103 32.9365C90.9038 32.8702 90.7603 32.7895 90.8036 32.6447L91.0981 32.6334ZM91.0663 32.0227C91.0761 32.2044 91.0868 32.3854 91.0951 32.5678C90.7596 32.5739 91.1255 32.1773 90.8856 32.0634L91.0663 32.0227ZM91.1862 35.3168C91.168 35.3093 91.1437 35.304 91.1247 35.2965C91.1156 35.2686 91.1073 35.2407 91.0997 35.2128L91.1839 35.2022C91.1847 35.2407 91.1855 35.2791 91.1862 35.3168ZM91.6758 39.337C91.6811 39.2804 91.6872 39.2239 91.6926 39.1666C91.7161 39.2307 91.7328 39.291 91.7517 39.3521C91.7267 39.3475 91.7016 39.3423 91.6758 39.337ZM91.5741 40.0849C91.587 40.0103 91.5999 39.9356 91.6121 39.8595C91.6136 39.8625 91.6143 39.8663 91.6159 39.8693C91.6136 39.8633 91.6136 39.8602 91.6128 39.8542C91.6143 39.8391 91.6159 39.8248 91.6182 39.8097C91.6705 39.9025 91.7419 39.9726 91.8831 39.9846C91.8922 40.0781 91.899 40.1709 91.899 40.2576C91.8094 40.1694 91.6979 40.0962 91.5741 40.0849ZM91.4686 40.5629C91.4967 40.4559 91.5225 40.3466 91.546 40.2327C91.6629 40.3156 91.7905 40.4076 91.4686 40.5629ZM91.0124 40.8487C90.8104 40.7499 90.5888 40.6519 90.361 40.5501C90.4073 40.425 90.4536 40.2983 90.4992 40.1754C90.6654 39.723 90.8226 39.2842 90.957 38.8544C90.9623 38.8529 90.963 38.8514 90.9683 38.8484C91.064 38.819 91.1543 38.8137 91.2424 38.8175C91.2879 38.9856 91.3357 39.141 91.3866 39.2917C91.313 39.2827 91.2378 39.2752 91.1612 39.2706C91.3024 39.3068 91.3874 39.3785 91.4466 39.4621C91.4496 39.4697 91.4527 39.4757 91.455 39.4832C91.4185 39.6084 91.379 39.7321 91.3396 39.8504C91.2052 40.2463 91.0731 40.5931 91.0124 40.8487ZM89.4341 43.5539C89.4341 43.5275 89.4349 43.5019 89.4349 43.4763L89.4493 43.4748C89.444 43.5004 89.4395 43.5275 89.4341 43.5539ZM91.7851 43.6972C91.7411 43.9234 91.584 44.1518 92.1951 44.0289C92.1564 44.0787 92.1146 44.1254 92.0615 44.1571C91.1703 44.0327 91.5035 43.8646 91.7851 43.6972ZM92.4486 43.6301C92.3818 43.7183 92.3272 43.8261 92.2665 43.9264C92.1754 43.9415 92.0881 43.9384 92.0167 43.894L92.4486 43.6301ZM93.6139 46.6852C93.6374 46.9747 93.6579 47.2642 93.6792 47.5537C93.5888 47.5266 93.5319 47.4987 93.5486 47.4791C93.5736 47.2582 93.0438 46.9 93.6139 46.6852ZM12.0821 63.4218C12.4503 63.9488 12.3956 64.0151 12.2506 64.0136C12.196 63.8153 12.1421 63.617 12.0821 63.4218ZM11.5781 19.5724L11.6411 19.7112C11.6373 19.7157 11.6342 19.7195 11.6304 19.724C11.6023 19.687 11.5743 19.6486 11.5492 19.6169C11.5583 19.6018 11.5674 19.5883 11.5781 19.5724ZM11.8529 19.3221C11.8384 19.3063 11.8248 19.2957 11.8088 19.2769C11.8172 19.2972 11.8339 19.3168 11.846 19.3372C11.8126 19.4148 11.7769 19.4895 11.7458 19.5679C11.7139 19.5347 11.6836 19.5038 11.6479 19.4676C11.7435 19.3289 11.8605 19.1721 11.9918 19.0062C11.9424 19.1095 11.8992 19.2158 11.8529 19.3221ZM12.4647 18.4279C12.5148 18.4897 12.5619 18.5546 12.6059 18.6209C12.6044 18.6232 12.6029 18.6262 12.6021 18.6292C12.4131 18.829 12.2286 19.0311 12.0487 19.2347C12.0639 19.1155 12.0783 18.9964 12.0958 18.878C12.1565 18.8049 12.2089 18.7355 12.2765 18.6594C12.3334 18.5855 12.4025 18.5048 12.4647 18.4279ZM16.3272 14.6128C16.2391 14.7576 16.1533 14.9038 16.0728 15.0584C15.0419 15.7008 14.0627 16.5656 13.2755 17.6136C13.0401 17.9235 12.8291 18.247 12.6317 18.5764C12.5801 18.5342 12.5292 18.492 12.4655 18.4271C13.3612 17.3226 14.7535 15.9225 16.3272 14.6128ZM26.6657 6.77003C26.772 6.71047 26.9018 6.70595 27.04 6.715C26.9155 6.73309 26.791 6.74968 26.6657 6.77003ZM81.7093 17.5759C81.5627 17.6332 81.0838 17.9175 81.3601 18.1859C81.915 18.7272 81.9218 17.6845 82.3469 17.8994C81.7586 18.6503 82.2877 19.0756 82.785 19.5475C83.2883 20.0037 83.6906 20.5345 82.9216 21.3277C82.7819 20.9137 82.8138 20.64 82.5496 19.9939L81.4345 19.6576C81.8247 19.0823 80.831 18.1007 79.5291 17.0579C79.2785 16.8664 79.0174 16.6659 78.757 16.4661C80.2889 18.2085 81.7093 20.11 83.1766 22.1578C83.1744 22.1955 83.1759 22.2362 83.1782 22.2762C81.9127 21.2892 80.9471 20.1349 79.9238 18.976C78.8276 17.6656 77.6328 16.3824 76.135 15.3706C75.24 15.1142 75.555 15.406 76.0568 15.835C76.554 16.2716 77.2577 16.828 77.2236 17.0172C77.197 17.0315 77.175 17.0376 77.15 17.0497C75.845 15.7114 74.6122 14.655 73.4697 13.7767C73.5319 13.4261 73.5403 13.0657 73.1865 12.8892C72.8578 12.4617 72.5048 12.0606 72.1503 11.6535C72.9785 11.9611 73.7908 12.2936 74.5826 12.6563C74.7837 13.2082 75.0388 13.7548 75.7205 14.3233C75.8579 14.2909 75.993 14.2577 75.9467 14.1431C76.1183 14.3316 76.3058 14.5193 76.5214 14.7033C76.8091 14.9679 77.1264 15.2341 77.4657 15.4927C77.8931 15.8071 78.3281 16.1374 78.757 16.4661C78.6265 16.3183 78.5027 16.1592 78.3706 16.0137C77.2858 14.8277 76.1304 13.7352 74.8741 12.7973C75.8215 13.2421 76.7446 13.7179 77.616 14.2419C79.1024 15.1346 80.4582 16.1321 81.6561 17.1876C81.5741 17.2404 81.4914 17.2939 81.4102 17.3512C81.5111 17.4266 81.6113 17.502 81.7093 17.5759ZM91.5688 38.8793C91.5779 38.8974 91.5855 38.9155 91.5938 38.9336C91.5688 39.0558 91.54 39.1771 91.5073 39.297C91.4944 39.1515 91.4914 39.0128 91.4868 38.8567C91.5142 38.8642 91.5415 38.871 91.5688 38.8793ZM5.27656 39.8602C5.27807 39.8926 5.28184 39.9168 5.28412 39.9485C5.28032 39.9515 5.27653 39.9545 5.27274 39.9575C5.27426 39.9243 5.27504 39.8949 5.27656 39.8602ZM11.2562 20.1764C11.2342 20.1703 11.241 20.1289 11.2926 20.0316C11.3344 19.9592 11.3981 19.8537 11.4733 19.733C11.5097 19.7504 11.5462 19.7662 11.5818 19.7813C11.471 19.9132 11.3625 20.0437 11.2562 20.1764ZM19.3781 14.079C19.3804 14.0835 19.3826 14.0835 19.3849 14.0881C18.9848 14.4598 18.5203 14.79 18.1194 15.1813C18.0215 15.2431 17.9221 15.3035 17.8257 15.3668C17.8537 15.2673 17.8758 15.1677 17.9069 15.069C17.9669 15.0222 18.0215 14.9785 18.0876 14.9295C18.4444 14.6573 18.8869 14.37 19.3781 14.079ZM11.3898 21.4136C11.3564 21.5245 11.3215 21.636 11.2911 21.7469C11.2646 21.7431 11.2357 21.7371 11.2281 21.7544C11.2501 21.7627 11.2607 21.7755 11.279 21.7853C11.2509 21.8886 11.2258 21.9919 11.2 22.096C11.1006 22.0703 11.0444 22.0877 11.1082 22.2173C11.0915 22.1744 11.1218 22.1857 11.1712 22.2204C11.1142 22.4548 11.0603 22.6893 11.0148 22.9223C10.9169 22.8831 10.7977 22.8303 10.5844 22.7218C10.5267 22.7052 10.4879 22.7082 10.4378 22.6991C10.4378 22.678 10.4378 22.6569 10.4378 22.6396C10.7256 22.1962 11.0178 21.7544 11.3442 21.339C11.3594 21.3639 11.3738 21.3887 11.3898 21.4136ZM20.9168 13.2421C21.0664 13.1667 21.2167 13.0913 21.3693 13.0167C21.2713 13.126 21.1104 13.1946 20.9168 13.2421ZM11.4551 21.1935C11.446 21.2236 11.4376 21.2538 11.4285 21.2839C11.424 21.2719 11.4179 21.2583 11.4141 21.247C11.4285 21.2297 11.4406 21.2108 11.4551 21.1935ZM17.7763 15.17C17.6678 15.3208 17.5615 15.4708 17.4582 15.6224C17.3026 15.7325 17.15 15.8426 16.9997 15.9572C16.8912 15.9534 17.188 15.636 17.7763 15.17ZM7.04305 29.5414C7.15464 29.2263 7.26698 28.9013 7.38995 28.5703C7.57974 28.948 7.66705 29.3017 7.04305 29.5414ZM5.99773 33.5307C6.08427 33.1054 6.18675 32.5988 6.3029 32.0265C6.46307 31.4633 6.64069 30.8352 6.83351 30.1566C6.88817 29.9734 6.9603 29.7819 7.02559 29.5949L7.81051 29.9026C7.46359 29.8739 7.01192 29.8483 7.18727 29.9825C7.24573 29.947 7.25862 29.8777 7.40437 29.9101L7.34744 30.4281L7.75432 30.4213C7.4947 30.4824 7.61617 30.6271 7.65261 30.7606C7.58125 30.836 7.51521 30.9099 7.46435 30.9807C7.41197 30.9943 7.35731 31.0071 7.27609 31.0162C7.32771 31.0222 7.37554 31.035 7.42261 31.0486C7.30267 31.2431 7.28823 31.4165 7.50534 31.5507C7.56531 31.5259 7.62984 31.507 7.74902 31.5485C7.7308 31.6224 7.72927 31.6985 7.73534 31.7754C7.6989 31.9986 7.65565 32.224 7.61465 32.4517C7.52735 32.5234 7.39602 32.5875 7.19257 32.6387C7.34895 32.6365 7.47346 32.6523 7.57822 32.6727C7.5729 32.7096 7.56683 32.7465 7.56076 32.7835C7.45752 32.7631 7.34135 32.7397 7.22141 32.742C7.3535 32.7616 7.46359 32.7888 7.5562 32.8204C7.50002 33.2246 7.48182 33.6317 7.56988 34.0388C7.38313 34.3005 7.17438 34.5629 7.06354 34.786C6.8768 34.8064 6.75077 34.8569 6.74926 34.9647C6.85174 34.9127 6.92916 34.9202 7.00127 34.9481C6.95724 35.114 6.99976 35.2467 7.19865 35.3228C7.25255 35.2912 7.31329 35.2648 7.43095 35.2829C7.42715 35.2934 7.42185 35.304 7.41805 35.3146C7.1106 35.4322 6.54125 35.534 6.79859 35.8484C6.72116 35.724 7.01344 35.7865 7.20929 35.8649C7.19031 35.9185 7.17056 35.9713 7.15158 36.0248C7.00658 36.0157 7.04531 36.0753 7.1068 36.1462C7.08327 36.2103 7.05972 36.2744 7.03619 36.3392C6.95269 36.3324 6.83731 36.3143 6.67182 36.2781C6.79708 36.3422 6.90639 36.3822 7.00887 36.4146C6.98458 36.4817 6.95877 36.5473 6.936 36.6152C6.93448 36.6152 6.93222 36.6144 6.9307 36.6144C6.89957 36.6642 6.87452 36.7237 6.87224 36.7886C6.83656 36.8919 6.80543 36.9974 6.77127 37.1007C6.49267 37.1083 6.60349 37.1678 6.65967 37.2236C6.61184 37.2402 6.56175 37.2568 6.50254 37.2756C5.91649 37.673 5.84742 38.246 5.74797 38.7881C5.71381 39.0542 5.67282 39.3136 5.56123 39.5534C5.46786 38.9932 5.38054 38.4201 5.33879 37.8079C5.30843 37.4113 5.27652 37.0034 5.24312 36.579C5.22794 36.1537 5.23935 35.7134 5.24694 35.249L5.83526 35.025C5.80186 34.924 5.81781 34.3796 5.99773 33.5307ZM24.9326 6.77154C24.947 6.78285 24.9584 6.79718 24.9751 6.80773C24.9706 6.78436 24.9728 6.7723 24.9706 6.75496C25.0123 6.73535 25.0556 6.71952 25.0966 6.69992C25.1695 6.76401 25.2575 6.88087 25.3365 7.02111C25.2742 7.03468 25.212 7.04297 25.1505 7.05655C24.5834 7.15079 24.052 7.34832 23.4964 7.49836C23.4804 7.50364 23.4637 7.50818 23.4478 7.5127C23.9382 7.25861 24.4293 7.00527 24.9326 6.77154ZM9.54817 18.8818C9.57929 18.921 9.60586 18.9602 9.65748 18.9964C9.69619 19.1434 9.6051 19.111 9.47377 19.0303C9.49882 18.9813 9.52312 18.9315 9.54817 18.8818ZM91.458 71.8919C91.3441 71.7969 91.3562 71.7124 91.4815 71.72C91.1019 71.4802 91.105 71.6943 90.7884 71.4568C90.9699 71.3716 91.2902 71.5224 91.6273 71.6061C91.5779 71.7026 91.5278 71.7991 91.477 71.8956L91.458 71.8919ZM91.1354 72.391C91.0595 72.0909 91.1718 71.9552 91.455 71.9371C91.3684 72.1 91.2788 72.2613 91.1893 72.4227L91.1354 72.391ZM91.7396 71.392C91.7206 71.4274 91.7017 71.4636 91.6827 71.4998C91.3525 71.3075 90.8605 71.0482 90.7649 70.8129C91.1589 71.0957 91.4345 71.1748 91.7396 71.392ZM91.874 71.1183C91.8497 71.1681 91.8262 71.2178 91.8011 71.2676C91.6106 71.1364 91.6386 71.0625 91.5938 70.9879C91.691 71.0331 91.7844 71.0768 91.874 71.1183ZM92.4805 69.8365C92.4456 69.9127 92.4099 69.9888 92.375 70.065C92.2611 69.9881 92.1716 69.9489 92.1511 70.0145C91.7366 69.6443 92.1898 69.7808 92.4805 69.8365ZM93.5441 67.3484C93.4682 67.2934 93.3846 67.2444 93.2685 67.2082L93.5426 67.353C93.5281 67.3877 93.5137 67.4223 93.4993 67.4578C93.1744 67.3824 92.665 67.1811 93.4347 67.6131C93.4287 67.6282 93.4226 67.6425 93.4165 67.6568C93.3566 67.6244 93.2897 67.5905 93.207 67.5528L93.3945 67.7111C93.286 67.9735 93.1728 68.2419 93.0575 68.5148C92.8009 68.3633 93.0043 68.2509 92.8609 68.1235C92.4912 68.1348 92.9998 68.7614 92.7849 68.6393L92.8783 68.6799L92.9345 68.8013C92.8988 68.885 92.8631 68.9687 92.8267 69.0532L92.4965 68.8571C92.6437 68.9469 92.7439 69.0147 92.8183 69.0713C92.788 69.1414 92.7568 69.213 92.7257 69.2839C92.5564 69.2763 92.4114 69.2726 92.6597 69.4317C92.6468 69.4618 92.6331 69.4927 92.6194 69.5229C92.4373 69.4369 92.2126 69.3088 92.0478 69.2017L92.2999 69.6729C92.0258 69.5417 91.4268 69.106 91.4891 69.1075C91.5582 69.0245 91.1118 68.5578 91.8117 68.8586C91.6887 68.7478 91.5605 68.6762 91.4398 68.6113C91.4747 68.4749 91.5088 68.3392 91.5415 68.2035C91.7282 68.0481 91.6439 67.736 92.1488 67.8438C91.94 67.7767 91.877 67.7865 91.6766 67.6432C91.6812 67.6259 91.6849 67.6093 91.6887 67.592L92.1412 67.7058C92.1017 67.6093 91.8899 67.4367 91.7525 67.31C91.7943 67.1238 91.8391 66.9308 91.8778 66.7536C92.0068 66.0697 92.1359 65.4748 92.287 65.0587C92.2991 65.3535 92.7606 64.2527 93.1577 63.47C93.5198 62.6784 93.8424 62.2086 93.6033 63.8576C94.2561 61.9711 94.3966 60.2415 94.4998 58.7042C94.5681 57.9367 94.622 57.2121 94.7435 56.5229C94.8794 55.8368 95.0562 55.1801 95.3766 54.5438C95.1876 54.2166 94.8961 53.5433 94.7435 52.7418C94.8255 52.6415 94.915 52.5412 95.0297 52.4417L94.7313 52.6709C94.6949 52.4689 94.666 52.2623 94.6524 52.0482C94.663 52.0421 94.6744 52.0361 94.685 52.0293L95.3887 52.1401C95.3068 51.8732 95.2126 51.6063 95.117 51.3402C95.2248 51.2783 95.3561 51.2474 95.0229 51.0763C94.9879 50.9775 94.9515 50.878 94.9165 50.7792C94.9173 50.777 94.9173 50.7747 94.9173 50.7724C95.1739 50.7031 95.3796 50.6224 95.4677 50.4595L95.0965 49.8737C95.2005 49.8586 95.3455 49.8941 95.3455 49.8941C95.1504 49.4289 95.4396 48.9652 95.3121 48.5859C95.7349 47.1338 96.2762 45.8995 95.7637 44.0252C95.8381 44.5461 95.9262 45.616 95.5383 45.705C95.3956 45.6567 95.2726 45.377 95.1542 44.9887C95.205 44.7927 95.2164 44.6208 95.0411 44.4934C95.0319 44.4979 95.0281 44.4987 95.019 44.5032C94.9067 44.0606 94.7943 43.5547 94.6683 43.0729C94.644 42.9734 94.6182 42.8784 94.5932 42.7826L94.9226 42.9198C94.9241 42.8248 94.8907 42.6266 94.5476 42.6092C94.5302 42.5481 94.5127 42.4916 94.4952 42.4328L94.5378 42.196C95.035 42.1772 95.284 42.1674 95.2308 42.3619C95.2521 42.3559 95.265 42.3483 95.2764 42.34C95.306 42.4162 95.3356 42.4976 95.3652 42.5723C95.0039 41.2687 94.9196 39.438 94.7048 38.0552C94.4991 36.6973 94.1962 35.7865 93.5426 36.214C93.7711 37.4023 93.9639 38.3862 94.1658 38.727L93.9957 38.5453C93.9957 38.5453 94.1787 39.1274 94.4292 39.9213C94.6516 40.6044 94.934 41.4443 95.224 42.2043C95.1633 42.1523 95.0813 42.098 95.0373 42.0565L94.9872 42.1304C94.8391 42.0958 94.7192 42.0219 94.6023 41.96C94.5871 42.0256 94.5059 42.0905 94.408 42.1508C94.3791 42.0626 94.3495 41.9744 94.3199 41.8967L94.4505 41.8907C94.4034 41.8748 94.3556 41.8681 94.3062 41.8658C94.1051 41.3546 93.8857 41.105 93.6496 41.4338C93.8416 42.0136 94.0155 42.6017 94.1924 43.1898C94.036 43.1551 93.7149 43.1852 93.6139 43.0661C93.6131 43.1287 93.5873 43.1875 93.7224 43.2327C94.0246 43.0382 93.9692 43.3443 94.1681 43.4114C94.203 43.3798 94.2174 43.3579 94.2364 43.3345C94.266 43.4325 94.2949 43.5306 94.3252 43.6278C93.702 42.8806 93.9517 45.7827 93.4795 45.2097C93.5251 45.6764 93.5676 46.1431 93.6063 46.6105C93.3368 46.5374 93.0977 46.6377 92.9238 46.5789C92.9185 46.5246 92.8874 46.4748 92.8289 46.4281C92.9428 46.321 93.0597 46.2147 93.2571 46.1295C93.1615 46.088 93.0977 46.042 93.0544 45.993C93.3581 45.3914 92.9178 44.749 93.5008 44.3328C93.2503 44.4504 93.248 44.5658 92.8517 44.4278L93.4188 44.0772C93.3087 43.8932 92.9003 43.7786 92.7523 43.6602C92.7834 43.6173 92.8153 43.5743 92.8472 43.5396C92.8244 43.5781 92.7834 43.6165 92.7477 43.655C92.6756 43.5939 92.6703 43.5321 92.8236 43.4597C92.7219 43.4461 92.646 43.468 92.5807 43.5079L91.9825 43.4288C91.9355 43.3843 91.8345 43.3413 91.6326 43.3014C90.6389 43.2101 91.9165 44.0184 90.6761 43.8133L90.8848 43.4303C89.693 43.716 91.2872 44.044 90.0961 44.1707C90.2342 44.0877 90.4104 44.0176 90.4825 43.9256C90.257 43.8781 90.1652 43.762 90.0984 43.6376C90.1272 43.6195 90.1568 43.606 90.1834 43.5992C90.15 43.5856 90.1113 43.5803 90.0688 43.5796C89.9936 43.422 89.9336 43.2652 89.6831 43.2275C89.8053 43.2991 89.7158 43.3549 89.6892 43.4454C89.6558 43.5192 89.6482 43.5894 89.649 43.6572C89.5867 43.6723 89.5237 43.6829 89.4607 43.6904C89.4615 43.6836 89.4622 43.6761 89.4622 43.6693L89.4949 43.667C89.4865 43.6602 89.4729 43.6542 89.4638 43.6482C89.4683 43.5886 89.4698 43.5306 89.4736 43.4718L89.6892 43.4454C89.5837 43.4212 89.5184 43.3903 89.4804 43.3556C89.4804 43.3534 89.4804 43.3511 89.4804 43.3496C89.4797 43.3511 89.4797 43.3534 89.4789 43.3549C89.4683 43.3451 89.4637 43.3345 89.4584 43.3247C89.4683 43.2916 89.4789 43.2576 89.4873 43.2184C89.4857 43.2621 89.4827 43.3059 89.4804 43.3496C89.4933 43.2946 89.5078 43.241 89.5214 43.186L89.8934 43.232C89.8471 43.0789 90.1553 42.6733 89.9595 42.5036C90.8059 42.4479 91.294 42.8814 91.2393 43.0631C91.691 42.8942 91.4982 42.6039 91.4527 42.4486L91.1467 42.7517C91.0534 42.3265 89.8183 42.4863 90.0141 41.9947C89.8084 41.6079 90.758 41.8485 91.1034 41.6977C90.5979 41.2754 91.0503 41.5439 90.207 41.6095C90.0544 41.2732 90.4233 41.1555 90.2965 40.7265C90.2988 40.7198 90.3011 40.713 90.3041 40.7054C90.6055 40.9422 91.0374 40.9874 90.8469 41.2634L91.0291 41.2272C91.0632 41.2664 91.1118 41.2898 91.193 41.283C91.2097 41.2528 91.2234 41.2174 91.2386 41.1865L91.4906 41.1367C91.4428 41.096 91.3737 41.0613 91.3152 41.0244C91.3585 40.9211 91.3965 40.8125 91.4314 40.6979C91.5104 40.805 91.7267 40.5388 91.8915 40.4672C91.8694 40.8012 91.8034 41.0869 91.7525 41.3312C91.7502 41.3418 91.7479 41.3516 91.7457 41.3629L91.6356 41.3772C91.6743 41.4074 91.6956 41.436 91.7237 41.4647C91.6865 41.6328 91.6531 41.7874 91.6447 41.9329C91.5681 41.8454 91.4231 41.7399 91.5498 41.6305C91.4542 41.7715 90.8704 42.0415 91.647 42.055C91.6614 42.3227 91.7798 42.576 92.1533 42.8678C92.0972 42.7442 92.063 42.6024 92.0418 42.4509C92.0668 42.4788 92.0858 42.5059 92.1199 42.5353L92.1662 42.1214C92.7644 42.0505 92.3325 42.5549 92.8692 42.4486C93.103 42.3566 93.1933 42.1184 93.3247 42.0121C92.3295 42.2488 93.1319 41.5838 92.0121 42.0912C92.0099 41.9932 92.0144 41.8892 92.019 41.7851C92.2361 41.6607 92.5238 41.5454 92.3849 41.28L92.0463 41.3237C92.0835 40.8773 92.129 40.4106 92.123 39.9605C92.1268 39.9598 92.1306 39.959 92.1336 39.9582C92.1336 39.9839 92.1336 40.0073 92.1336 40.0329C92.1359 40.0088 92.1344 39.9824 92.1359 39.9575C92.2528 39.9296 92.3963 39.8813 92.5747 39.8044C92.4676 39.6453 92.3431 39.527 92.1731 39.53L92.3219 39.5096C92.3219 39.5096 92.2543 39.484 92.145 39.4508C92.1427 39.3332 92.1404 39.2148 92.1359 39.101C92.1359 39.2179 92.1359 39.3332 92.1351 39.4478C92.1184 39.4433 92.0987 39.438 92.0805 39.4327C92.0622 39.3136 92.0455 39.1945 92.0121 39.0829L91.8664 38.9721C92.1291 39.0527 92.4076 39.095 92.7591 38.8914L92.1435 38.7542C92.7424 38.6629 92.46 38.292 92.9102 38.2219L92.1951 37.5041L92.7477 37.2749L92.5382 37.5863C93.8811 37.3676 92.2566 37.2153 92.8684 36.6943L92.4016 36.867C92.5154 35.9622 92.7143 36.3935 92.8699 35.6146L92.2968 35.6244C92.148 35.6501 93.0878 35.9532 92.3917 36.2156C91.9188 36.0384 91.7487 35.635 91.3175 35.3877C91.3191 35.3168 91.3206 35.249 91.3228 35.1856L92.1222 35.0884C91.6645 35.1057 92.6286 34.4083 92.3522 34.0667L92.1199 34.5824C91.6986 34.6315 91.5225 34.5146 91.4269 34.3382C91.502 34.0396 91.6045 33.8496 91.7115 33.548C91.8725 33.6701 92.0539 33.7267 92.3697 33.5427C92.3264 33.3339 92.101 33.2185 91.836 33.1341C91.8482 33.0851 91.8611 33.0345 91.8732 32.9795C91.7745 32.8559 91.6766 32.7375 91.5802 32.6146L91.5954 32.6138L91.5688 32.601C91.4269 32.4223 91.2864 32.2421 91.1391 32.0672C91.1847 32.0484 91.2158 32.0114 91.2522 31.9812L91.625 31.8976L91.4755 31.5334C91.5787 30.9302 91.3479 29.9192 90.9539 28.7927C90.8507 28.4859 90.7322 28.173 90.61 27.8593C90.8112 29.0001 90.941 30.1551 91.0222 31.3313C90.6988 30.9099 90.629 30.419 90.7634 29.8098L90.6328 30.2728C90.4855 30.3082 90.3663 30.1476 90.3914 29.9501C90.2677 30.0262 90.2191 30.1152 90.1925 30.2042C90.1735 30.0662 90.153 29.929 90.1318 29.7902C90.2229 29.5942 90.3155 29.3801 90.3428 29.1026C90.2639 29.1237 90.1629 29.1953 90.0506 29.2813C90.0316 29.1765 90.0118 29.0709 89.9929 28.9661C90.0953 28.9292 90.2122 28.9051 90.3633 28.9058C89.7727 28.7422 90.645 28.4089 89.8851 28.4368C89.8539 28.2943 89.8228 28.1518 89.7879 28.0093C89.8843 27.8668 89.945 27.7274 89.9276 27.5773L89.6232 27.3994C89.4341 26.7623 89.1928 26.1335 88.8724 25.5228C88.3084 24.9286 88.3251 25.1782 88.4989 25.663C88.4815 25.654 88.4685 25.6404 88.4495 25.6328C88.36 25.66 88.259 25.6826 88.1656 25.7075C88.177 25.4911 88.1725 25.2747 88.152 25.0568L88.42 25.0101C88.026 24.5343 88.1216 23.6703 87.7413 23.1741C87.6532 22.8756 87.5583 22.58 87.4559 22.2837C87.4695 22.1487 87.4445 22.0123 87.3397 21.8758C87.1469 21.1889 86.9533 20.4719 86.702 19.7813C86.6679 19.8047 86.6307 19.8137 86.5958 19.8295C86.5252 19.5747 86.4629 19.3214 86.4166 19.0703C87.2676 19.9419 87.9948 20.9153 88.593 21.9678C88.6454 22.1058 88.6902 22.2317 88.7213 22.338C88.7168 22.3847 88.7145 22.4322 88.7107 22.479C88.6583 22.4888 88.6067 22.4956 88.5498 22.5174C88.6204 22.58 88.6674 22.6072 88.7016 22.6147C88.675 23.1274 88.713 23.6778 89.0189 24.3737C89.1487 24.4099 89.2816 24.4461 89.3043 24.3451C89.5708 25.387 90.1325 26.6318 90.61 27.8593C90.5743 27.6587 90.5448 27.4567 90.5045 27.2561C90.1766 25.6064 89.652 24.005 88.9005 22.5084C88.8929 22.4941 88.8846 22.4805 88.877 22.4662C89.9663 22.5152 90.3284 25.0817 90.9904 23.4486C90.6351 22.7557 90.1583 22.0032 89.3764 21.0766C89.6034 21.4181 89.7902 21.7883 89.9913 22.1457C90.1963 22.5008 90.3793 22.8695 90.5539 23.2428C90.1189 23.0475 89.7211 22.4285 89.3393 21.8479C89.154 21.5742 88.9688 21.3156 88.7896 21.1173C88.7562 20.4689 88.53 19.7338 87.7322 18.7989C88.3015 19.7504 87.7557 19.2965 87.4065 19.1178C87.3238 19.016 87.2357 18.9044 87.1636 18.82C87.1423 18.7551 87.1188 18.6948 87.0953 18.63C87.0953 18.63 87.093 18.6292 87.0885 18.6239L87.1621 18.8185C86.7871 18.3812 86.5426 18.1715 86.3756 18.0894C86.7066 18.4204 87.0361 18.7514 87.3541 19.0937C87.1666 19.01 87.0649 19.0446 87.3063 19.5264C86.9472 19.2693 86.6633 18.918 86.3961 18.4965C86.3733 18.4633 86.3506 18.4234 86.3278 18.3887C86.3187 18.2816 86.3088 18.1738 86.3058 18.0675C86.3293 18.0743 86.3491 18.0758 86.3756 18.0894C86.3528 18.066 86.3301 18.0434 86.3065 18.02C86.3043 17.8881 86.3035 17.7561 86.3119 17.6249C86.6261 16.6893 87.2357 18.014 87.3997 17.6151C86.5798 17.0074 85.8184 16.6493 85.101 16.4842C85.0646 16.4344 85.0312 16.3847 84.9933 16.3341C85.2977 16.4585 85.5998 16.589 85.9019 16.7262C86.4105 16.9486 86.923 17.1808 87.405 17.4568C86.8729 17.1235 86.3673 16.7458 85.9224 16.3281C85.4882 15.8983 85.0578 15.4874 84.6661 15.121C83.9024 14.3663 83.1873 13.9177 82.6407 14.3014C82.3963 13.9373 82.1321 13.5889 81.855 13.2496L82.0721 14.1416C82.2938 14.3248 82.5048 14.508 82.6916 14.692C82.7667 14.7621 82.8351 14.8277 82.9057 14.8956C82.7743 14.8925 82.6187 14.8616 82.4714 14.7983C81.5316 13.7352 79.8471 12.6736 78.3289 11.8292C78.4663 11.8857 78.6052 11.943 78.7464 12.0033C79.0258 12.1398 79.3104 12.2944 79.5936 12.4497C78.3805 11.5404 77.3283 10.6424 76.3157 9.81833C75.2908 8.98217 74.3154 8.22293 73.2928 7.68836C73.2541 7.64011 73.2374 7.5911 73.2769 7.54134C74.2736 7.46595 75.404 8.22595 76.2739 8.88568C77.1371 9.5733 77.7595 10.1455 77.8886 9.74293C77.2069 9.03269 75.8921 8.33074 74.6767 7.7811C73.4606 7.23824 72.3659 6.78963 72.1382 6.44733C71.5461 6.47749 72.9619 7.21034 71.4535 6.96681C69.2884 6.12312 69.6946 5.95952 68.4557 5.16709L67.0726 5.39555C67.0657 4.70491 65.3706 4.27892 63.3141 3.92606C62.933 3.86047 62.539 3.79562 62.1412 3.73002C65.0031 4.69209 67.9501 5.78008 71.1164 6.96532C68.9627 6.70671 67.0034 6.10729 65.0145 5.48074C62.9414 4.82403 60.85 4.12587 58.5824 3.81825C56.2952 4.01881 60.6382 4.48777 60.7968 4.88813C60.648 5.0638 60.4856 5.14221 60.3133 5.16106C60.1554 5.10149 59.9497 5.05475 59.6824 5.0276C59.0379 4.75919 58.3114 4.22614 57.6001 4.67324C57.5273 4.80142 57.629 4.93563 57.8476 5.07436C57.6381 5.05098 57.4248 5.02686 57.2183 5.00424C56.2345 4.72829 55.7919 4.36185 56.1046 4.16054C55.0684 4.33847 55.5285 4.67399 56.4614 4.91828C55.1337 4.76899 53.8766 4.61217 52.719 4.41237C53.1304 4.10626 54.1142 3.92908 55.0123 4.11908C54.6396 3.87781 54.8149 2.69031 53.869 2.64205C53.075 2.30126 52.2779 1.94614 51.4656 1.62872C51.2637 2.76118 47.2388 1.92729 45.7813 1.65812C45.823 1.62796 45.8747 1.60007 45.9202 1.57066C46.4721 1.5684 46.3977 1.53523 46.072 1.47491C46.8927 1.00142 48.1756 0.656857 49.7136 1.2917C51.6 1.27662 53.4318 1.48396 55.2415 1.83153C54.4308 1.12959 53.7309 0.387681 51.4634 0.207482C53.5229 0.670419 50.0316 0.524913 51.7397 1.02781C49.7181 1.26757 47.1819 -0.396444 43.5062 0.11701C44.8119 -0.0179509 44.3101 0.524154 43.6375 0.665147C43.0408 0.598797 42.3508 0.569384 41.6144 0.562599C40.8781 0.5724 40.0931 0.620651 39.3105 0.671921C38.5286 0.758627 37.7459 0.846099 37.0096 0.929036C36.2748 1.03912 35.5862 1.14015 34.9873 1.21479C35.1087 1.32487 35.1262 1.46888 35.1049 1.58649C32.9665 1.6815 32.3516 1.77272 29.9034 1.86697C25.3729 2.48522 20.2321 4.75165 15.9256 7.83614C13.7651 9.38479 11.7891 11.1242 10.037 12.8742C8.26068 14.6083 6.79251 16.4284 5.4276 18.0042C4.48856 18.964 4.67305 18.299 5.01086 17.4651C5.37676 16.6591 5.92637 15.7264 5.48532 16.0906C3.38633 20.4938 3.27699 23.7298 3.67097 25.5016C3.9602 26.7743 4.50224 27.3632 5.17863 27.5389C4.2616 29.9923 3.67402 32.5475 3.35594 35.0665C3.0242 37.6994 2.95285 40.287 2.99536 42.7781C2.82379 42.7781 2.71675 42.8067 2.85795 42.9033C2.92096 42.8995 2.96197 42.8852 2.99614 42.8671C2.99841 42.9771 2.9969 43.0895 2.99917 43.1996C3.00373 43.3436 3.01206 43.48 3.01737 43.6241C2.61124 44.1865 3.069 44.9179 1.94322 45.3009C1.23647 45.4343 1.30099 45.0702 0.97229 45.1222C1.58263 45.4698 2.30607 45.708 3.10923 45.8731C3.1449 46.6663 3.17074 47.4512 3.20641 48.2255C3.08571 48.3907 2.88377 48.5347 2.50648 48.6334C1.79518 48.7186 1.87338 48.3869 1.54316 48.4178C2.03735 48.7065 2.61048 48.9388 3.24359 49.125C3.26713 49.6633 3.29672 50.2137 3.31191 50.743C3.82811 51.7518 4.30259 52.7524 4.87497 53.7091C4.58878 53.9376 4.19784 54.4096 4.84158 55.8806C4.70645 55.3128 4.47338 54.353 4.67 54.5234C5.32057 56.8502 6.07362 59.152 7.03619 61.368L7.12882 60.528C7.54786 62.8601 10.1547 66.2122 10.7825 68.6649C11.0125 68.5616 11.9736 69.8154 12.1998 69.4822C13.7962 72.6609 16.2346 75.5629 18.7465 78.1189C19.9839 79.4225 21.3047 80.5829 22.5004 81.7643C23.7514 82.8847 24.8764 84.0323 25.9293 85.1157C25.6652 84.5465 26.2664 84.7486 26.5222 84.7553C28.4147 86.1102 26.7925 85.3284 27.0589 85.9006C27.3034 85.7717 27.9084 85.9338 28.7579 86.347C29.1837 86.552 29.6749 86.8159 30.2199 87.1311C30.7794 87.4214 31.4034 87.7471 32.0707 88.1165C34.7481 89.5717 38.3487 91.3948 42.2847 92.7052C46.1996 94.0382 50.4393 94.8631 53.9192 94.9731C54.7876 95.0598 55.6051 94.9942 56.359 94.995C57.112 94.9678 57.8051 94.9844 58.4094 94.8879C59.6232 94.7394 60.5175 94.5765 60.9767 94.3956C60.3915 94.4016 59.8031 94.4076 59.9975 94.2403C65.492 93.6213 71.0625 91.8532 76.1046 89.2332C81.1179 86.5603 85.5345 82.89 88.7099 78.7387C86.8364 80.7857 87.3443 78.4831 86.097 79.5326C85.1846 81.0368 87.9288 78.2011 86.5958 80.0898C86.2223 80.2737 85.9368 80.4472 85.7023 80.6047C85.4571 80.751 85.2749 80.892 85.1322 81.0307C84.8483 81.3089 84.726 81.5796 84.6008 81.8601C84.3457 82.4082 84.1028 83.0679 82.4479 83.6696C82.7758 83.1441 83.1311 82.6616 83.4181 82.1157C82.7941 82.8312 82.019 83.5264 81.2136 84.2871C80.3808 85.0109 79.4319 85.6925 78.4724 86.4111C77.4521 87.0338 76.4318 87.726 75.3432 88.2831C74.2417 88.8155 73.1729 89.4149 72.0532 89.8099L72.161 88.9172C71.4337 89.3802 70.5023 89.8499 69.6733 90.0806C68.8345 90.2842 68.127 90.3113 67.8802 90.0256C68.5217 89.8439 69.0888 89.6539 69.5936 89.4609C70.0893 89.243 70.5167 89.0047 70.9023 88.7823C71.6675 88.3216 72.2688 87.928 72.763 87.4772C73.7703 86.6048 74.5727 86.0084 76.1259 85.5372C75.9391 85.9835 76.0325 85.7604 76.4333 85.7604C76.6519 85.4799 76.9222 85.1595 77.2403 84.8239C77.5584 84.4877 77.8886 84.0851 78.2803 83.7156C78.6682 83.3401 79.1002 82.9729 79.5761 82.6322C80.024 82.2559 80.5167 81.9068 81.061 81.606L80.6351 82.5718C81.5369 81.8774 82.4312 81.1205 83.2943 80.3273C83.3885 80.3725 83.4598 80.3582 83.4606 80.2036C83.4515 80.1976 83.4431 80.2014 83.434 80.1968C84.3267 79.3682 85.18 78.4996 85.9604 77.6009C86.1813 77.4765 86.428 77.3777 86.7544 77.3529C87.5173 77.4373 87.1302 77.9975 87.4711 78.0541C87.3223 77.5172 87.0702 77.0566 86.7529 76.6411C87.4559 75.7544 88.0882 74.8504 88.6014 73.9404C88.1163 74.3287 88.0032 74.1085 88.13 73.6041C88.1755 73.6426 88.218 73.6795 88.2727 73.7195L88.1444 73.5446C88.152 73.5152 88.155 73.4933 88.1649 73.4624C88.3881 73.6237 88.4496 73.5453 88.7031 73.7911L88.615 73.2596L89.0812 73.632L88.7904 73.5016C89.7499 74.4252 88.8003 73.2882 89.4531 73.6863L89.069 73.3719C89.6034 73.4051 89.5093 73.5642 90.0073 73.6298L89.6368 73.2354C89.529 73.1344 89.9723 73.7987 89.3954 73.332C89.1267 72.909 89.3643 72.8102 88.9749 72.2915L89.8987 73.1812C89.3514 72.6813 90.4893 73.4247 90.4961 73.2038L90.0748 73.0711C89.258 72.2847 90.2942 72.7054 89.8782 72.1452C89.8486 72.1754 89.8152 72.201 89.668 72.1165C89.7279 72.0721 89.7887 72.0291 89.8464 71.9741C90.645 72.6421 90.0286 72.6556 90.7558 73.1676C90.544 73.5159 90.3269 73.8582 90.0976 74.1862L90.9516 73.0899C91.2188 72.7182 91.4648 72.3329 91.7229 71.9522C91.7305 71.9529 91.7366 71.9529 91.7442 71.9537C91.893 72.2304 92.3112 71.9092 92.7409 71.5217C93.163 71.1175 93.6056 70.6569 93.8211 70.782C93.5418 70.678 93.5281 70.3651 93.6526 69.9248C93.7346 69.869 93.7764 69.7921 93.7323 69.6692C93.8447 69.3525 94.0056 68.9876 94.187 68.5895C94.4634 68.0361 94.745 67.4095 95.0107 66.7988C95.2878 66.1919 95.5019 65.5842 95.621 65.0684L95.0608 64.0295C94.6182 64.7314 94.1286 65.9355 93.5441 67.3484Z" fill="#A0C878"/>
<path d="M47.3312 39.2987C46.8608 39.6079 46.305 39.807 45.6675 39.9025V40.6424C45.6675 40.8822 45.4733 41.0756 45.2333 41.0756H44.4375C44.1974 41.0756 44.0033 40.8822 44.0033 40.6424V39.9037C43.2823 39.7892 42.6342 39.5135 42.0605 39.072C41.7048 38.8024 41.422 38.5194 41.2096 38.2248C41.1485 38.1555 41.1164 38.0793 41.1155 37.9932C41.1127 37.862 41.1807 37.7546 41.3193 37.6747L42.1307 37.1985L42.1344 37.1974C42.1344 37.1974 42.2918 37.1282 42.3717 37.1282C42.5186 37.1282 42.6356 37.1855 42.7237 37.3C43.1257 37.7356 43.5522 38.0316 44.0033 38.1913V36.3203C42.9587 36.1593 42.2037 35.7677 41.7384 35.1437C41.4616 34.7773 41.3183 34.3548 41.3088 33.8789C41.2908 32.9109 41.8168 32.1796 42.8871 31.6926C43.2189 31.5411 43.5912 31.4361 44.0033 31.3789V30.5578C44.0033 30.318 44.1974 30.1223 44.4375 30.1223H45.2333C45.4733 30.1223 45.6675 30.318 45.6675 30.5578V31.4013C46.545 31.5542 47.262 31.9469 47.8182 32.5793C47.8981 32.6521 47.9375 32.7356 47.9348 32.8323C47.9338 32.9515 47.8705 33.0496 47.7489 33.1271L46.8562 33.6865L46.854 33.688C46.854 33.688 46.6974 33.7678 46.5831 33.7666C46.4422 33.7666 46.3184 33.7212 46.211 33.6317C46.0365 33.4814 45.8553 33.3632 45.6675 33.2749V34.7739C46.7346 34.923 47.5199 35.2989 48.0233 35.899C48.3336 36.2737 48.4828 36.732 48.4718 37.2701C48.4553 38.133 48.0734 38.8083 47.3312 39.2987ZM44.5866 26.7237C39.5986 26.7237 35.5414 30.7808 35.5414 35.7703C35.5414 40.7583 39.5986 44.8167 44.5866 44.8167C49.5747 44.8167 53.6333 40.7583 53.6333 35.7703C53.6333 30.7808 49.5747 26.7237 44.5866 26.7237Z" fill="white"/>
<path d="M43.4782 33.8835C43.4805 34.2034 43.6559 34.429 44.0033 34.5625V33.2345L43.9422 33.2584C43.6306 33.4062 43.4769 33.615 43.4782 33.8835Z" fill="white"/>
<path d="M45.6675 38.1628C45.7286 38.1353 45.7883 38.1054 45.8434 38.0708C46.1536 37.8824 46.3097 37.6173 46.3119 37.2749C46.3156 36.9061 46.0985 36.6556 45.6675 36.5207V38.1628Z" fill="white"/>
<path d="M70.283 51.0685L70.2963 51.0314C67.2199 51.0314 65.3368 49.1556 63.0723 47.5757C61.4288 46.4288 59.5851 45.4361 56.9313 45.4361C55.7389 45.4361 54.7274 45.4467 53.8691 45.472H47.6117C46.6965 45.472 45.9538 46.2141 45.9538 47.1293C45.9538 48.0447 46.6965 48.7857 47.6117 48.7857H51.1558H53.4864C54.6714 48.9803 55.577 50.0051 55.577 51.245C55.577 52.1854 55.0519 52.9944 54.2832 53.4179C54.0973 53.4682 53.2 53.7068 51.9993 54.0243C51.226 54.2104 50.4921 54.4072 49.8036 54.6054L49.6559 54.6448C47.0755 55.3272 44.298 56.0589 43.7931 56.177C43.4599 56.1949 43.1547 56.1805 42.8862 56.1137L33.6321 50.115L31.9564 48.9027V48.905C31.8766 48.8513 31.7907 48.8059 31.7049 48.763C31.5819 48.6999 31.4544 48.6436 31.3194 48.603C31.2133 48.5709 31.1037 48.5481 30.9912 48.5314C30.8732 48.5135 30.7526 48.5016 30.6286 48.5016C30.4639 48.5016 30.3028 48.5183 30.1463 48.5507C28.7799 48.6686 27.7037 49.8023 27.7037 51.1998C27.7037 51.9396 28.0102 52.6006 28.4973 53.0815L28.4958 53.0839L28.5091 53.0935C28.7024 53.2821 28.9222 53.4455 29.1655 53.5697L29.803 54.034L44.3071 64.5492L44.3085 64.5469C44.3681 64.5694 44.4279 64.5921 44.4875 64.616C44.8133 64.7294 45.1581 64.8035 45.5234 64.8035C45.7359 64.8035 45.9433 64.7807 46.1448 64.7413L46.2178 64.7223C51.1319 63.4715 61.2868 60.8906 66.0385 59.7186C66.1565 59.6757 66.2666 59.6351 66.3809 59.5922C67.5948 59.2879 69.2472 58.9264 70.283 58.9264V58.2318L70.2963 58.2306L70.283 57.2772V51.2785V51.0685Z" fill="white"/>
</svg>
