<svg width="96" height="96" viewBox="0 0 96 96" fill="none" xmlns="http://www.w3.org/2000/svg">
<path d="M81.6307 74.7427C79.7261 77.2661 77.4405 79.2342 75.1774 80.8738C72.8924 82.519 70.6436 83.8371 68.4385 85.1104C66.2027 86.3928 63.8761 87.6346 61.4273 88.7643C58.9798 89.8961 56.3984 90.9046 53.6825 91.7086C50.9564 92.5008 48.0876 93.0863 45.1231 93.3118C44.6833 93.3454 44.2395 93.3692 43.7956 93.3889C45.7999 93.2285 47.7796 92.9161 49.7156 92.4665C50.2592 92.3649 50.8 92.2529 51.3361 92.1261C52.1849 91.9475 52.9778 91.6526 53.5296 91.3956C54.3108 91.1378 55.0832 90.8605 55.8439 90.5635C56.1553 90.4431 56.4592 90.3044 56.7679 90.1776C60.7416 88.8735 63.8037 87.2458 66.7245 85.5992C68.4823 84.5837 70.1403 83.5864 72.0197 82.4167C73.8867 81.2338 75.9429 79.9059 78.1814 78.0141C76.8546 79.0395 75.4983 79.9185 74.1489 80.6854C76.6948 78.912 78.9101 76.9755 80.8843 74.3953C82.8661 71.7829 84.3555 68.5864 85.3798 64.7189C86.2334 61.6316 86.4779 58.9576 86.6384 56.5644C86.7907 54.1593 86.8596 52.0434 87.0686 49.8582C87.1246 49.078 87.1724 48.2922 87.2175 47.505C87.3233 47.9945 87.4135 48.7874 87.4818 50.0424C87.5132 49.6642 87.5405 49.293 87.5828 48.968C87.5125 48.0674 87.4039 47.1933 87.2721 46.3521C87.2967 45.8241 87.3199 45.2953 87.3363 44.7644C87.4408 44.2307 87.5248 43.6963 87.5931 43.1612C87.6696 43.4196 87.7419 43.6823 87.802 43.954C87.8737 44.2405 87.9475 44.5354 88.0213 44.8288C87.9632 47.6079 87.7973 50.3044 87.6423 52.8383C87.3227 57.1134 87.1547 61.7332 85.7192 66.5546C84.8601 69.3393 83.5606 72.2129 81.6307 74.7427ZM3.93019 40.9284C4.0258 39.9605 4.22657 38.9947 4.37817 38.0057C4.52568 37.2668 4.72235 36.4411 4.94225 35.5747C5.18672 34.7146 5.47148 33.8189 5.78903 32.9336C6.42412 31.163 7.19716 29.4471 7.85479 28.0926C5.84434 32.2458 4.58099 36.5861 3.93019 40.9284C3.17559 47.2773 3.68093 52.9623 5.0556 58.5009C5.75284 61.2709 6.68022 64.0129 7.91558 66.7724C8.22971 67.4714 8.56432 68.1731 8.9208 68.8749C9.1004 69.5207 9.29911 70.1622 9.51149 70.8002C4.40002 62.1646 2.34587 51.549 3.93019 40.9284ZM11.61 27.6548C12.463 26.135 13.4443 24.7027 14.2617 23.5926C11.5766 27.6436 9.95333 31.9313 8.95084 36.2856C7.96542 40.6518 7.62056 45.1237 7.8944 49.8477C7.90943 50.048 7.93128 50.2497 7.94972 50.4508C7.94835 50.4557 7.94767 50.4606 7.94699 50.4655C7.92991 50.2603 7.90806 50.0515 7.8944 49.8477C7.90533 50.1321 7.90737 50.4178 7.90874 50.7036C7.73187 51.9124 7.59665 53.1304 7.51402 54.3575C6.40637 46.8907 7.16234 39.1095 9.57228 32.0924C10.0244 30.7673 10.7496 29.1691 11.61 27.6548ZM25.2652 7.30954C26.8311 6.57765 28.4181 5.94801 30.0093 5.40171C28.9494 6.04746 28.0077 6.72611 27.1923 7.39918C26.196 7.82431 25.2044 8.28446 24.2231 8.78663C23.7307 9.04157 23.2404 9.30913 22.7528 9.58648C23.5586 8.79155 24.3952 8.03093 25.2652 7.30954ZM23.5006 8.18151C23.5409 8.1605 23.5812 8.14228 23.6215 8.12127C23.5873 8.15208 23.5532 8.17871 23.5197 8.20952C23.573 8.28096 23.5068 8.40212 22.4394 9.22506C22.8184 8.86857 23.1646 8.5422 23.5197 8.20952C23.5143 8.19972 23.5074 8.19061 23.5006 8.18151ZM33.2763 91.701C33.2851 91.7031 33.2954 91.7044 33.3049 91.7065C33.6525 91.8095 34.0049 91.9055 34.3607 91.9979C32.3885 91.626 30.4491 91.0874 28.5595 90.4031C28.1245 90.1944 27.6963 89.9738 27.275 89.7392C29.2219 90.5439 31.2255 91.2086 33.2763 91.701ZM8.8327 57.2984C8.88255 57.4798 8.93787 57.6689 8.99045 57.8538C9.00411 59.0577 9.06282 60.2645 9.18028 61.4691C9.11677 61.273 9.04918 61.0776 8.98772 60.8794C8.8805 59.6838 8.82928 58.4876 8.8327 57.2984ZM8.98567 56.9334C8.9843 57.0721 8.98772 57.2115 8.98772 57.3502C8.93787 57.1275 8.8846 56.9054 8.83817 56.6834C8.83953 56.5539 8.84157 56.425 8.84567 56.2954C8.89279 56.5083 8.93582 56.7212 8.98567 56.9334ZM16.4907 28.3531C18.174 25.0809 20.6973 22.0063 23.9814 19.6957C24.2798 19.4821 24.5912 19.2811 24.9012 19.0794C24.7838 19.1921 24.6636 19.2993 24.5468 19.4135C23.0451 20.8864 21.6124 22.4496 20.2452 24.0808C19.9666 24.3995 19.6935 24.7223 19.4292 25.0543C18.0176 26.8109 16.7024 28.662 15.4834 30.5894C15.5456 30.4094 15.6521 30.1573 15.7743 29.8827C16.1021 29.1901 16.5433 28.3867 16.4907 28.3531ZM72.9033 74.6124C73.4175 74.0017 73.9202 73.3804 74.4064 72.7438C74.4979 72.6885 74.5901 72.6352 74.6802 72.5778C74.1161 73.3188 73.5282 74.0451 72.9115 74.7546C72.8944 74.7175 72.889 74.6719 72.9033 74.6124ZM18.1132 29.9486C18.1569 29.875 18.1986 29.8064 18.2375 29.7399C18.256 29.7532 18.2833 29.7532 18.3051 29.7602C18.2409 29.8225 18.174 29.8876 18.1132 29.9486ZM79.8361 63.3853C79.7965 63.5457 79.7507 63.697 79.709 63.8546C79.7063 63.7979 79.7029 63.7418 79.6995 63.6851C79.7453 63.5857 79.7917 63.4855 79.8361 63.3853ZM80.1372 62.0833C80.0778 62.3635 80.0116 62.6345 79.9467 62.907C79.862 63.1297 79.7842 63.3545 79.6927 63.5744C79.6858 63.447 79.6783 63.3202 79.6708 63.1927C79.8347 62.8271 79.9856 62.4552 80.1372 62.0833ZM74.5231 68.0737C74.5948 67.9553 74.6556 67.8342 74.726 67.7158C74.8161 67.6472 74.9076 67.5806 74.9971 67.5106C74.0062 69.1558 72.9265 70.7029 71.7977 72.1443C71.8346 72.0063 71.8694 71.869 71.9042 71.731C72.863 70.5488 73.7481 69.3295 74.5231 68.0737ZM14.6182 77.2178C14.4584 77.1009 14.3047 76.9972 14.1565 76.9041C14.0323 76.6946 13.9059 76.4873 13.7864 76.2758C13.9496 76.4544 14.1026 76.6253 14.2228 76.7773C14.3532 76.9223 14.4857 77.07 14.6182 77.2178C14.7869 77.3348 14.9706 77.47 15.1611 77.6149C15.256 77.7606 15.3564 77.9063 15.4527 78.052C15.1727 77.7753 14.8893 77.5001 14.6182 77.2178ZM86.469 29.9626C86.1064 29.3813 85.7267 28.8119 85.3368 28.2509C85.2747 28.0709 85.218 27.8881 85.1524 27.7095C85.1401 27.6737 85.1244 27.6394 85.1121 27.6037C85.5437 28.2348 85.95 28.87 86.3331 29.5108C86.3782 29.6614 86.4253 29.8113 86.469 29.9626ZM34.7568 4.62709C37.5764 3.62415 40.2261 3.22562 42.8177 3.35659C40.4904 3.65565 38.1002 4.05697 35.6616 4.63619C34.4672 4.92684 33.2626 5.25673 32.0552 5.62653C33.1028 5.06763 34.1586 4.58296 35.2048 4.20546C34.6263 4.45199 34.7349 4.54445 34.7568 4.62709ZM17.4303 81.5616C18.0996 82.1247 18.7873 82.6654 19.492 83.1857C20.616 84.3694 21.8343 85.5047 23.1571 86.5532C23.3531 86.7073 23.56 86.8508 23.7608 87.0007C22.9133 86.5385 22.0904 86.0377 21.2798 85.518C19.9113 84.312 18.6165 82.9917 17.4303 81.5616ZM94.6611 41.4495C94.112 38.3174 93.2304 35.317 92.0503 32.3614C91.3128 30.5257 90.4353 28.7082 89.426 26.9033C88.7001 24.7224 87.7624 22.5687 86.5694 20.5397C80.4466 10.0963 69.7033 4.2979 59.3526 2.4461C56.0645 2.06299 52.5899 1.93973 48.9945 2.0763C51.4249 2.12113 53.9741 2.32774 56.6292 2.78089C53.8888 2.64151 50.9673 2.65973 47.9449 2.85794C47.206 2.63031 46.4541 2.4363 45.6899 2.28012C46.8037 2.19047 47.9052 2.12393 48.9945 2.0763C47.6403 2.05739 46.3148 2.084 45.0125 2.15194C44.2203 2.01677 43.4179 1.92362 42.6073 1.89C42.3308 1.8753 42.0556 1.86829 41.7804 1.86689C43.026 1.74082 44.2695 1.64697 45.5083 1.58604C50.042 1.36752 54.6891 1.58043 59.3526 2.4461C60.237 2.55326 61.1753 2.68913 62.035 2.83481C56.1649 1.19382 50.7413 0.928393 45.8245 1.17913C40.9008 1.45508 36.2441 2.27312 31.8026 3.7159C33.1021 3.3496 34.403 3.04353 35.7046 2.77948C35.6923 2.78369 35.6787 2.78649 35.6664 2.7907C34.1155 3.29217 32.633 3.94491 31.2795 4.67331C29.3489 5.31205 27.4778 6.07756 25.6709 6.96564C25.763 6.8907 25.8491 6.80805 25.942 6.73521C26.7505 6.09717 27.5857 5.50326 28.4393 4.94646C29.5476 4.49752 30.6676 4.0836 31.8026 3.7159C30.8608 3.97574 29.9185 4.27759 28.9781 4.59906C30.8349 3.43993 32.7859 2.48043 34.8039 1.77374C37.9439 0.667146 41.2709 0.194391 44.4279 0.454932C42.2188 0.150267 40.1291 0.230114 38.2177 0.549487C36.2994 0.870961 34.5389 1.42005 32.874 2.11763C30.9462 2.93917 29.1338 3.94771 27.3562 5.17617C22.9201 6.87879 18.6001 9.31962 14.8046 12.6548C11.313 15.7708 8.58412 19.3897 6.48626 23.1486C4.38773 26.9159 2.89697 30.8352 1.88561 34.7882C-0.0906944 42.7256 -0.227274 50.8353 1.5264 58.6172C0.963013 55.7477 0.644093 52.8313 0.579217 49.9059C0.527317 46.9804 0.719223 44.0493 1.15491 41.1476C2.02628 35.3401 3.87624 29.6698 6.78401 24.4485C9.63032 19.2055 13.262 14.6957 17.6222 11.2282C20.4078 8.99885 23.3934 7.21008 26.5115 5.7785C25.6312 6.42636 24.7558 7.13164 23.8769 7.90066C23.7424 7.9749 23.6058 8.04703 23.4712 8.12337C23.4548 8.05264 23.5006 7.92796 23.8154 7.60929C23.545 7.85722 23.28 8.12548 23.0123 8.38602C22.5835 8.63605 22.1567 8.89029 21.7367 9.15643C22.1089 8.93791 22.4865 8.73621 22.8628 8.531C22.1109 9.272 21.3734 10.0536 20.6516 10.8773C18.2109 12.472 15.8993 14.356 13.882 16.5314C10.8978 19.7251 8.53291 23.3958 6.75534 27.1989C4.97161 31.0062 3.76765 34.9493 3.05335 38.8329C1.58854 46.6057 2.2168 54.0402 3.86122 59.8982C5.31442 65.214 7.74895 70.408 11.1573 74.9437C11.6599 76.0244 12.2069 77.0813 12.8085 78.0996C12.7368 77.9105 12.7191 77.8152 12.7607 77.8215C13.0229 78.2824 13.3152 78.7264 13.5966 79.1761C11.1607 76.6029 9.056 73.7271 7.3433 70.6588C4.61513 65.7344 2.88605 60.3835 2.00921 55.0102C1.87468 54.2223 1.78179 53.3349 1.66843 52.4938C2.06178 57.6661 3.21384 62.7921 5.2475 67.5666C6.24111 69.9619 7.46417 72.257 8.8962 74.4212C10.3187 76.591 11.9269 78.6228 13.7243 80.4501C14.4789 81.2345 15.2703 81.979 16.0823 82.6976C16.4531 83.1612 16.8342 83.6172 17.2282 84.0633C15.4957 82.7032 13.8506 81.2205 12.3366 79.5935C9.87685 76.9391 7.73393 73.9071 6.02054 70.6784C3.93634 66.8501 2.44694 62.7914 1.5264 58.6172C2.34656 62.8727 3.76424 67.0175 5.73781 70.8857C7.67519 74.7693 10.3084 78.3244 13.2981 81.3872C15.3557 83.496 17.6414 85.3492 20.0766 86.9622C22.5575 89.2272 25.4264 91.1505 28.5848 92.6156C32.0225 94.1971 35.2218 94.8393 38.3174 95.1216C41.4246 95.3912 44.4594 95.2617 47.8103 94.8632C53.4866 94.16 58.6841 92.3537 63.379 90.2252C65.7315 89.1565 67.9687 87.9988 70.1253 86.8179C72.2416 85.649 74.4842 84.389 76.7958 82.7753C79.0924 81.1659 81.4675 79.1831 83.5387 76.6015C84.2373 75.7274 84.8649 74.812 85.4365 73.8756C85.5772 74.0017 85.6099 74.2671 85.429 74.8176C84.4313 76.156 82.1654 78.6242 80.8577 79.707C79.7971 81.0664 81.2285 80.1622 81.4238 80.38C80.142 81.5293 78.7305 82.5337 78.8268 82.6696C78.695 82.8839 78.6827 83.0016 78.7735 83.0345C78.865 83.0653 79.0384 83.0338 79.3895 82.837C80.0423 82.4581 81.2046 81.7668 82.4673 80.6147C83.6371 79.0549 85.106 76.8788 86.3727 74.7343C86.9566 73.6284 87.5692 72.5764 87.9919 71.5574C88.2118 71.0566 88.4201 70.581 88.6126 70.1426C88.782 69.6944 88.9213 69.2783 89.0429 68.9134C89.5352 67.4545 89.5728 66.731 89.0053 67.423C88.7219 67.7011 88.3538 68.2747 87.7768 69.1242C87.9004 68.8056 88.0199 68.4862 88.1298 68.1696C89.1405 65.3044 89.7087 62.5309 90.1157 59.9178C90.1348 59.7896 90.1498 59.6684 90.1683 59.5417C90.6729 57.9854 90.9946 56.7016 91.2397 55.7176C91.4091 55.1027 91.5231 54.5949 91.614 54.188C91.7116 53.7824 91.7984 53.4799 91.8762 53.2712C92.1856 52.4356 92.3597 53.1052 92.4669 54.6131C92.5291 55.3681 92.4758 56.3164 92.4512 57.3929C92.4348 57.9301 92.3611 58.4862 92.3112 59.0668C92.2504 59.6446 92.2115 60.2483 92.105 60.8416C92.0114 61.4418 91.9186 62.0462 91.8257 62.6443C91.728 63.2439 91.5887 63.8252 91.4801 64.4002C91.2766 65.5551 90.985 66.6106 90.8102 67.5372C91.5525 65.988 92.359 64.0325 92.9326 61.757C93.0713 61.799 93.3485 61.8823 93.3485 61.8823C95.5768 54.5073 95.7243 47.7396 94.6611 41.4495Z" fill="#A0C878"/>
<path fill-rule="evenodd" clip-rule="evenodd" d="M53.6845 51.1227H52.2689C51.8835 51.1227 51.5688 51.4376 51.5688 51.8233V52.4601C51.5688 52.8457 51.8835 53.1606 52.2689 53.1606H53.6845C54.0699 53.1606 54.385 52.8457 54.385 52.4601V51.8233C54.385 51.4376 54.0699 51.1227 53.6845 51.1227Z" fill="white"/>
<path fill-rule="evenodd" clip-rule="evenodd" d="M60.4947 59.7841H36.0536C34.9298 59.7841 34.0171 58.8713 34.0171 57.7462V48.5744H62.5312L62.5317 57.7457C62.5317 58.8713 61.619 59.7841 60.4947 59.7841ZM32.2887 39.8829H29.4688V37.7808C29.4688 36.6557 30.3809 35.7429 31.5053 35.7429L55.9459 35.7424C56.9278 35.7424 57.7478 36.4392 57.9398 37.3647H36.0536C34.3557 37.3647 32.9003 38.4045 32.2887 39.8829ZM31.9801 56.1244H31.5053C30.3809 56.1244 29.4688 55.2116 29.4688 54.086V44.9147H31.9801V56.1244ZM60.4947 39.4026C61.619 39.4026 62.5312 40.3159 62.5312 41.441V43.5431H34.0171V41.441C34.0171 40.3154 34.9293 39.4031 36.0536 39.4031L60.4947 39.4026ZM60.4947 37.3647H59.9978C59.7895 35.309 58.055 33.705 55.9459 33.705H31.5053C29.2557 33.705 27.4318 35.5297 27.4318 37.7808V54.0855C27.4318 56.3367 29.2557 58.1623 31.5053 58.1623H32.0012C32.21 60.2176 33.9445 61.8225 36.0536 61.8225L60.4947 61.822C62.7443 61.822 64.5682 59.9973 64.5682 57.7462V41.441C64.5682 39.1899 62.7443 37.3647 60.4947 37.3647Z" fill="white"/>
<path fill-rule="evenodd" clip-rule="evenodd" d="M49.5314 51.1227H36.882C36.4966 51.1227 36.1819 51.4376 36.1819 51.8233V52.4601C36.1819 52.8457 36.4966 53.1606 36.882 53.1606H49.5314C49.9163 53.1606 50.2315 52.8457 50.2315 52.4601V51.8233C50.2315 51.4376 49.9163 51.1227 49.5314 51.1227Z" fill="white"/>
</svg>
