<svg width="87" height="28" viewBox="0 0 87 28" fill="none" xmlns="http://www.w3.org/2000/svg">
<rect x="0.11084" width="86.8412" height="27.9538" rx="5" fill="#FFFDF6"/>
<g clip-path="url(#clip0_8_791)">
<path d="M35.2493 15.7029C36.1393 15.7022 36.9997 15.3831 37.6754 14.8033C38.351 14.2234 38.7973 13.421 38.9338 12.5407C39.2217 10.7058 37.7893 9.10403 35.7597 9.10403H32.4886C32.4272 9.10323 32.3676 9.12467 32.3208 9.16439C32.274 9.20411 32.2432 9.25942 32.2339 9.32013L30.776 18.5821C30.7708 18.616 30.7729 18.6506 30.7822 18.6835C30.7915 18.7164 30.8079 18.747 30.8301 18.773C30.8523 18.7991 30.8799 18.82 30.911 18.8343C30.942 18.8487 30.9758 18.8562 31.01 18.8562H32.741C32.8022 18.8569 32.8616 18.8353 32.9083 18.7956C32.9549 18.7559 32.9857 18.7007 32.9949 18.6401L33.4238 15.9194C33.433 15.8587 33.4638 15.8033 33.5105 15.7635C33.5572 15.7238 33.6168 15.7022 33.6781 15.7029H35.2493ZM36.6979 12.4572C36.5909 13.1355 36.0672 13.6353 35.0648 13.6353H33.7826L34.1712 11.1676H35.4301C36.4673 11.1698 36.8042 11.7819 36.6979 12.4591V12.4572ZM46.4336 12.0213H44.7901C44.7287 12.0206 44.6692 12.0421 44.6224 12.0818C44.5756 12.1215 44.5447 12.1767 44.5354 12.2374L44.4823 12.5788C44.4823 12.5788 43.2063 11.1842 40.9483 12.1262C39.6528 12.6659 39.0313 13.7812 38.767 14.5976C38.767 14.5976 37.9266 17.0794 39.8263 18.4458C39.8263 18.4458 41.5872 19.7595 43.5706 18.3646L43.5363 18.5821C43.531 18.616 43.533 18.6506 43.5423 18.6836C43.5516 18.7165 43.568 18.7471 43.5902 18.7731C43.6124 18.7992 43.6401 18.8201 43.6711 18.8345C43.7022 18.8488 43.7361 18.8562 43.7703 18.8562H45.4131C45.4744 18.857 45.534 18.8356 45.5808 18.7959C45.6276 18.7562 45.6585 18.7009 45.6677 18.6401L46.6672 12.2954C46.6725 12.2616 46.6704 12.227 46.661 12.1941C46.6517 12.1611 46.6354 12.1306 46.6132 12.1045C46.5909 12.0785 46.5633 12.0576 46.5323 12.0432C46.5012 12.0289 46.4678 12.0214 46.4336 12.0213ZM44.0172 15.5278C43.9529 15.9699 43.7306 16.3736 43.3915 16.6641C43.0524 16.9546 42.6196 17.1121 42.1733 17.1074C41.9985 17.1094 41.8245 17.0839 41.6577 17.0317C40.949 16.8041 40.5449 16.1222 40.6611 15.3834C40.7255 14.9401 40.9488 14.5353 41.2892 14.2446C41.6297 13.9539 42.0642 13.7971 42.5117 13.8034C42.6867 13.8015 42.8609 13.8274 43.0277 13.8795C43.7338 14.1063 44.1353 14.7882 44.0191 15.5278H44.0172Z" fill="#003087"/>
<path d="M58.9119 15.7029C59.8024 15.7027 60.6635 15.3838 61.3397 14.804C62.016 14.2241 62.4629 13.4214 62.5998 12.5407C62.8873 10.7058 61.4553 9.10402 59.4249 9.10402H56.1549C56.0936 9.10339 56.0342 9.1249 55.9875 9.16459C55.9407 9.20429 55.9099 9.25951 55.9006 9.32013L54.4383 18.5847C54.4299 18.6357 54.4386 18.6881 54.4629 18.7337C54.4873 18.7793 54.526 18.8156 54.573 18.837C54.6041 18.8515 54.638 18.8591 54.6723 18.8592H56.4036C56.465 18.8598 56.5245 18.8382 56.5712 18.7985C56.6179 18.7587 56.6487 18.7034 56.6579 18.6427L57.0872 15.922C57.0963 15.8612 57.127 15.8058 57.1738 15.766C57.2205 15.7262 57.2801 15.7047 57.3415 15.7055L58.9119 15.7029ZM60.3606 12.4572C60.2535 13.1355 59.7298 13.6353 58.727 13.6353H57.4452L57.8342 11.1676H59.0931C60.1295 11.1698 60.4672 11.7819 60.3606 12.4591V12.4572ZM70.0958 12.0213H68.4542C68.3929 12.0207 68.3335 12.0422 68.2867 12.0819C68.24 12.1216 68.2092 12.1768 68.1999 12.2374L68.146 12.5787C68.146 12.5787 66.8704 11.1842 64.6124 12.1262C63.3173 12.6659 62.6954 13.7812 62.4307 14.5976C62.4307 14.5976 61.5907 17.0793 63.49 18.4458C63.49 18.4458 65.2513 19.7595 67.2347 18.3645L67.2004 18.5821C67.192 18.6332 67.2007 18.6855 67.225 18.7311C67.2494 18.7767 67.2881 18.813 67.3351 18.8344C67.3661 18.8492 67.4001 18.8566 67.4344 18.8566H69.0772C69.1386 18.8575 69.1982 18.8361 69.245 18.7963C69.2918 18.7564 69.3225 18.7009 69.3315 18.6401L70.3313 12.2954C70.3362 12.2615 70.3339 12.2268 70.3245 12.1939C70.3151 12.1609 70.2988 12.1303 70.2767 12.104C70.2545 12.0778 70.2268 12.0567 70.1955 12.0424C70.1643 12.0281 70.1302 12.0209 70.0958 12.0213ZM67.6798 15.5278C67.6163 15.9702 67.3942 16.3744 67.0549 16.665C66.7157 16.9556 66.2824 17.1129 65.8359 17.1074C65.6609 17.1095 65.4866 17.0839 65.3196 17.0317C64.6106 16.8041 64.206 16.1222 64.3223 15.3834C64.3865 14.9412 64.6088 14.5374 64.9479 14.2468C65.287 13.9563 65.7199 13.7987 66.1662 13.8034C66.3415 13.8015 66.5157 13.827 66.6826 13.8795C67.396 14.1063 67.7987 14.7882 67.6817 15.5278H67.6798Z" fill="#0070E0"/>
<path d="M52.4652 12.178L50.4843 15.5246L49.4793 12.2028C49.4635 12.1501 49.4311 12.1039 49.387 12.0711C49.3428 12.0384 49.2892 12.0208 49.2342 12.021H47.4472C47.4163 12.0204 47.3859 12.0273 47.3583 12.0411C47.3307 12.0549 47.3069 12.0752 47.2889 12.1002C47.2709 12.1253 47.2593 12.1543 47.2549 12.1848C47.2506 12.2154 47.2537 12.2465 47.2641 12.2756L49.0652 17.8707L47.4364 20.5076C47.418 20.5367 47.4078 20.5701 47.4068 20.6045C47.4058 20.6388 47.4141 20.6728 47.4308 20.7029C47.4475 20.7329 47.472 20.7579 47.5017 20.7751C47.5314 20.7924 47.5652 20.8013 47.5996 20.8009H49.5251C49.5801 20.8012 49.6343 20.7871 49.6823 20.7601C49.7303 20.733 49.7703 20.6938 49.7986 20.6465L54.8299 12.3155C54.848 12.2864 54.858 12.253 54.8587 12.2187C54.8594 12.1844 54.8509 12.1506 54.8341 12.1208C54.8172 12.0909 54.7927 12.0662 54.763 12.0492C54.7333 12.0321 54.6995 12.0234 54.6653 12.024H52.7405C52.6852 12.0233 52.6306 12.0372 52.5823 12.0643C52.534 12.0913 52.4936 12.1305 52.4652 12.178Z" fill="#003087"/>
<path d="M71.9442 9.3172L70.4819 18.5818C70.4735 18.6328 70.4822 18.6852 70.5065 18.7308C70.5309 18.7764 70.5695 18.8127 70.6166 18.8341C70.6476 18.8489 70.6815 18.8563 70.7159 18.8563H72.4465C72.5079 18.857 72.5674 18.8355 72.6142 18.7957C72.6609 18.7559 72.6917 18.7005 72.7008 18.6398L74.1634 9.37519C74.1689 9.34135 74.1669 9.30673 74.1576 9.27374C74.1483 9.24075 74.1319 9.21019 74.1096 9.18421C74.0873 9.15821 74.0597 9.13732 74.0286 9.12298C73.9975 9.10863 73.9637 9.10117 73.9295 9.10109H72.1985C72.1372 9.10046 72.0777 9.12197 72.031 9.16166C71.9843 9.20136 71.9535 9.25658 71.9442 9.3172Z" fill="#0070E0"/>
<path d="M25.8695 13.334C25.4982 15.4526 23.7713 17.0541 21.5051 17.0541H20.0664C19.773 17.0541 19.4774 17.326 19.4305 17.6267L18.8005 21.6293C18.7639 21.8572 18.6573 21.933 18.4266 21.933H16.1125C15.8785 21.933 15.8231 21.8546 15.8582 21.6237L16.1239 18.8557L13.3462 18.712C13.1126 18.712 13.028 18.5846 13.0613 18.3511L14.9565 6.3229C14.993 6.09497 15.1348 5.99707 15.3647 5.99707H20.1713C22.485 5.99707 23.9488 7.55601 24.1278 9.57745C25.5045 10.5084 26.1482 11.747 25.8699 13.3337L25.8695 13.334Z" fill="#001C64"/>
<path d="M16.828 14.3741L16.1242 18.8563L15.6791 21.6683C15.6708 21.7225 15.6743 21.7778 15.6893 21.8306C15.7043 21.8833 15.7305 21.9322 15.7661 21.9739C15.8017 22.0156 15.8458 22.0492 15.8955 22.0723C15.9452 22.0954 15.9992 22.1075 16.054 22.1079H18.4981C18.6097 22.1077 18.7175 22.0678 18.8023 21.9952C18.887 21.9226 18.9432 21.8221 18.9606 21.7118L19.6039 17.6261C19.6213 17.5159 19.6775 17.4155 19.7623 17.343C19.847 17.2705 19.9548 17.2306 20.0663 17.2305H21.505C22.6013 17.229 23.661 16.8357 24.4931 16.1213C25.3252 15.4069 25.8749 14.4185 26.0432 13.3342C26.2924 11.7431 25.4926 10.2947 24.1236 9.5791C24.1206 9.74862 24.1058 9.91772 24.0794 10.0852C23.9104 11.1689 23.3605 12.1566 22.5285 12.8704C21.6966 13.5843 20.6373 13.9773 19.5415 13.9788H17.2901C17.1787 13.9789 17.0709 14.0187 16.9862 14.0912C16.9015 14.1636 16.8454 14.264 16.828 14.3741Z" fill="#0070E0"/>
<path d="M16.1238 18.856H13.2779C13.2229 18.8558 13.1687 18.8436 13.1189 18.8205C13.0691 18.7974 13.0249 18.7638 12.9892 18.722C12.9536 18.6802 12.9273 18.6312 12.9123 18.5783C12.8973 18.5255 12.8938 18.47 12.9021 18.4157L14.8199 6.24562C14.8371 6.13533 14.8931 6.03482 14.9779 5.96222C15.0626 5.88961 15.1704 5.84968 15.282 5.84961H20.1686C22.4824 5.84961 24.1647 7.53489 24.1252 9.57665C23.5093 9.25865 22.8254 9.09547 22.1325 9.10121H18.0586C17.947 9.10124 17.8391 9.1411 17.7543 9.21362C17.6694 9.28614 17.6132 9.38657 17.5957 9.49686L16.8281 14.3739L16.1238 18.856Z" fill="#003087"/>
</g>
<defs>
<clipPath id="clip0_8_791">
<rect width="62.7439" height="17.732" fill="white" transform="translate(12.1595 5.11084)"/>
</clipPath>
</defs>
</svg>
