<svg width="21" height="20" viewBox="0 0 21 20" fill="none" xmlns="http://www.w3.org/2000/svg">
<path d="M13.8448 10.755L13.4652 11.1323C13.4652 11.1323 12.563 12.0294 10.1005 9.58083C7.63805 7.13234 8.5402 6.23531 8.5402 6.23531L8.7792 5.99765C9.36803 5.4122 9.42353 4.47226 8.90978 3.78607L7.859 2.3824C7.22318 1.5331 5.99458 1.42091 5.26583 2.14553L3.95783 3.4461C3.59648 3.8054 3.35433 4.27116 3.38369 4.78784C3.45882 6.10968 4.05688 8.95375 7.39408 12.272C10.933 15.7908 14.2536 15.9307 15.6115 15.8041C16.041 15.7641 16.4145 15.5453 16.7155 15.246L17.8994 14.069C18.6984 13.2744 18.4731 11.9123 17.4507 11.3565L15.8586 10.491C15.1873 10.1261 14.3695 10.2333 13.8448 10.755Z" fill="#FFFDF6"/>
</svg>
