<svg width="17" height="16" viewBox="0 0 17 16" fill="none" xmlns="http://www.w3.org/2000/svg">
<path d="M8.8442 0.847448L10.8577 5.55118L15.9677 6.00746C16.0484 6.01407 16.1254 6.04441 16.1888 6.09467C16.2523 6.14492 16.2995 6.21284 16.3244 6.28987C16.3494 6.36689 16.351 6.44957 16.329 6.5275C16.307 6.60542 16.2625 6.6751 16.201 6.72776L12.3329 10.0986L13.4736 15.0971C13.4855 15.1496 13.4869 15.204 13.4778 15.257C13.4686 15.3101 13.4491 15.3608 13.4203 15.4063C13.3914 15.4518 13.3539 15.4912 13.3098 15.5221C13.2658 15.5531 13.216 15.575 13.1634 15.5867C13.0547 15.6096 12.9413 15.5884 12.8481 15.5277L8.45842 12.908L4.05716 15.5405C4.01118 15.5684 3.96014 15.5869 3.90697 15.595C3.85381 15.6031 3.79957 15.6005 3.74739 15.5875C3.69521 15.5746 3.64611 15.5514 3.60293 15.5193C3.55975 15.4873 3.52333 15.447 3.49579 15.4008C3.46819 15.3556 3.4498 15.3054 3.44166 15.253C3.43353 15.2007 3.4358 15.1473 3.44836 15.0958L4.59033 10.0973L0.727375 6.72776C0.646178 6.65571 0.596419 6.55474 0.588753 6.44646C0.581087 6.33818 0.616124 6.23121 0.686362 6.14844C0.763772 6.06913 0.869072 6.02314 0.979865 6.02028L6.07066 5.564L8.08417 0.847448C8.11665 0.77373 8.16987 0.71105 8.23734 0.667045C8.30481 0.623039 8.38363 0.599609 8.46419 0.599609C8.54474 0.599609 8.62356 0.623039 8.69103 0.667045C8.75851 0.71105 8.81172 0.77373 8.8442 0.847448Z" fill="#FFD401"/>
</svg>
