<svg width="16" height="16" viewBox="0 0 16 16" fill="none" xmlns="http://www.w3.org/2000/svg">
<path d="M8.31984 0.855749L10.3333 5.55948L15.4434 6.01576C15.5241 6.02237 15.601 6.05271 15.6645 6.10297C15.7279 6.15323 15.7751 6.22114 15.8001 6.29817C15.825 6.37519 15.8266 6.45787 15.8046 6.5358C15.7827 6.61372 15.7381 6.6834 15.6766 6.73606L11.8085 10.1069L12.9492 15.1054C12.9612 15.1579 12.9626 15.2123 12.9534 15.2653C12.9443 15.3184 12.9247 15.3691 12.8959 15.4146C12.8671 15.4601 12.8295 15.4995 12.7855 15.5304C12.7414 15.5614 12.6916 15.5833 12.6391 15.595C12.5303 15.6179 12.4169 15.5967 12.3238 15.536L7.93406 12.9163L3.5328 15.5488C3.48682 15.5767 3.43578 15.5952 3.38261 15.6033C3.32945 15.6114 3.27521 15.6088 3.22303 15.5958C3.17085 15.5829 3.12175 15.5597 3.07857 15.5276C3.03539 15.4956 2.99897 15.4553 2.97143 15.4091C2.94383 15.3639 2.92544 15.3137 2.9173 15.2613C2.90917 15.209 2.91144 15.1556 2.924 15.1041L4.06597 10.1056L0.203015 6.73606C0.121817 6.66402 0.0720579 6.56304 0.0643921 6.45476C0.0567263 6.34648 0.0917638 6.23951 0.162001 6.15674C0.239411 6.07743 0.344712 6.03145 0.455504 6.02858L5.5463 5.5723L7.55981 0.855749C7.59229 0.782031 7.6455 0.719351 7.71298 0.675345C7.78045 0.63134 7.85927 0.60791 7.93983 0.60791C8.02038 0.60791 8.0992 0.63134 8.16667 0.675345C8.23414 0.719351 8.28736 0.782031 8.31984 0.855749Z" fill="#F2F2F2"/>
</svg>
