<svg width="20" height="20" viewBox="0 0 20 20" fill="none" xmlns="http://www.w3.org/2000/svg">
<path fill-rule="evenodd" clip-rule="evenodd" d="M6.87118 16.7469C13.2359 16.7469 16.7173 11.5548 16.7173 7.05286C16.7173 6.90506 16.7173 6.75837 16.7072 6.61224C17.3844 6.13065 17.9688 5.53271 18.4335 4.84853C17.8027 5.1242 17.1322 5.30498 16.4466 5.38468C17.1685 4.95873 17.7091 4.28954 17.968 3.49991C17.2883 3.8968 16.5453 4.17691 15.7702 4.3272C14.4597 2.95551 12.2678 2.88906 10.8737 4.17937C9.97555 5.01134 9.59352 6.2518 9.87266 7.435C7.09045 7.29717 4.49799 6.00356 2.74044 3.87546C1.82203 5.4323 2.29178 7.42319 3.81234 8.42289C3.26163 8.40711 2.72273 8.26113 2.24118 7.9971V8.04033C2.24202 9.66195 3.40332 11.0582 5.01749 11.3796C4.50811 11.5166 3.97342 11.5364 3.4556 11.4376C3.90848 12.8259 5.20809 13.7768 6.68817 13.8042C5.46278 14.7524 3.94897 15.2673 2.39045 15.2656C2.11552 15.2648 1.84059 15.249 1.5665 15.2166C3.14947 16.2163 4.9905 16.7469 6.87118 16.7444" fill="white"/>
</svg>
