<svg width="20" height="20" viewBox="0 0 20 20" fill="none" xmlns="http://www.w3.org/2000/svg">
<g clip-path="url(#clip0_8_723)">
<path d="M6.69669 11.6067C6.91956 11.6069 7.14021 11.651 7.34605 11.7364C7.55188 11.8219 7.73887 11.9471 7.89634 12.1048C8.0538 12.2625 8.17866 12.4497 8.26378 12.6557C8.3489 12.8616 8.39262 13.0824 8.39244 13.3052C8.39226 13.5281 8.34819 13.7488 8.26273 13.9546C8.17728 14.1604 8.05212 14.3474 7.8944 14.5049C7.73668 14.6623 7.54949 14.7872 7.34351 14.8723C7.13754 14.9574 6.91682 15.0012 6.69395 15.001C6.24375 15.0005 5.81217 14.8213 5.49415 14.5026C5.17614 14.1839 4.99773 13.752 4.99819 13.3018C4.99864 12.8516 5.17792 12.42 5.49658 12.102C5.81524 11.784 6.24649 11.6063 6.69669 11.6067ZM4.90836 6.04016C9.90031 6.04016 13.9597 10.0995 13.9597 15.0915L11.6969 15.0915C11.6952 13.2916 10.9794 11.5659 9.70668 10.2932C8.43395 9.02046 6.70826 8.3047 4.90836 8.303L4.90836 6.04016ZM4.90836 1.51449C12.3956 1.51518 18.4847 7.60426 18.4854 15.0915L16.2225 15.0915C16.2225 8.85156 11.1483 3.77733 4.90836 3.77732L4.90836 1.51449Z" fill="#222831"/>
</g>
<defs>
<clipPath id="clip0_8_723">
<rect width="20" height="20" fill="white"/>
</clipPath>
</defs>
</svg>
